<?xml version="1.0" standalone="no"?>
<!DOCTYPE svg PUBLIC "-//W3C//DTD SVG 1.1//EN" "http://www.w3.org/Graphics/SVG/1.1/DTD/svg11.dtd" >
<svg xmlns="http://www.w3.org/2000/svg">
<metadata>
  Created by FontForge 20120731 at Fri Jul 21 09:45:27 2017
 By admin
</metadata>
<defs>
<font id="iconfont" horiz-adv-x="1024" >
  <font-face
    font-family="iconfont"
    font-weight="500"
    font-stretch="normal"
    units-per-em="1024"
    panose-1="2 0 6 3 0 0 0 0 0 0"
    ascent="896"
    descent="-128"
    x-height="792"
    bbox="-0.135135 -181 2040 896"
    underline-thickness="0"
    underline-position="0"
    unicode-range="U+0078-E8B1"
  />
<missing-glyph
 />
    <glyph glyph-name=".notdef"
 />
    <glyph glyph-name=".notdef"
 />
    <glyph glyph-name=".null" horiz-adv-x="0"
 />
    <glyph glyph-name="nonmarkingreturn" horiz-adv-x="341"
 />
    <glyph glyph-name="x" unicode="x" horiz-adv-x="1001"
d="M281 543q-27 -1 -53 -1h-83q-18 0 -36.5 -6t-32.5 -18.5t-23 -32t-9 -45.5v-76h912v41q0 16 -0.5 30t-0.5 18q0 13 -5 29t-17 29.5t-31.5 22.5t-49.5 9h-133v-97h-438v97zM955 310v-52q0 -23 0.5 -52t0.5 -58t-10.5 -47.5t-26 -30t-33 -16t-31.5 -4.5q-14 -1 -29.5 -0.5
t-29.5 0.5h-32l-45 128h-439l-44 -128h-29h-34q-20 0 -45 1q-25 0 -41 9.5t-25.5 23t-13.5 29.5t-4 30v167h911zM163 247q-12 0 -21 -8.5t-9 -21.5t9 -21.5t21 -8.5q13 0 22 8.5t9 21.5t-9 21.5t-22 8.5zM316 123q-8 -26 -14 -48q-5 -19 -10.5 -37t-7.5 -25t-3 -15t1 -14.5
t9.5 -10.5t21.5 -4h37h67h81h80h64h36q23 0 34 12t2 38q-5 13 -9.5 30.5t-9.5 34.5q-5 19 -11 39h-368zM336 498v228q0 11 2.5 23t10 21.5t20.5 15.5t34 6h188q31 0 51.5 -14.5t20.5 -52.5v-227h-327z" />
    <glyph glyph-name="jiantou" unicode="&#xe614;"
d="M176 544l336 -367l340 372q19 19 44 19q27 0 46 -20.5t19 -49.5q0 -28 -18 -48v0l-385 -421q-19 -21 -46 -21v0v0q-27 0 -46 21v0l-385 421v0q-18 20 -18 48q0 29 19 49.5t46 20.5q29 0 48 -24z" />
    <glyph glyph-name="shezhi1" unicode="&#xe6a6;"
d="M644 -105v0q-25 0 -41 18q-16 17 -42.5 35t-48.5 18q-23 0 -49.5 -18t-41.5 -34q-16 -18 -41 -18q-11 0 -21 5h-1l-107 60l-1 1q-14 10 -19 27.5t2 33.5q10 23 10 43q0 47 -33 80t-80 33h-4v0q-14 0 -24 11t-13 30q-10 48 -10 85t10 85q3 19 13.5 30t23.5 10h4
q47 0 80 33.5t33 79.5q0 21 -10 44q-7 16 -2 33.5t19 27.5l2 1l112 62h1q10 4 21 4q25 0 41 -16q15 -17 41 -34t48 -17t47.5 17t41.5 33t40 16q12 0 21 -4l2 -1l108 -60l1 -1q15 -10 20 -27.5t-2 -33.5q-10 -23 -10 -44q0 -46 33 -79.5t80 -33.5h3q14 1 24.5 -10t13.5 -30
q9 -48 9 -85t-9 -85q-3 -19 -13.5 -30t-24.5 -11h-3q-47 0 -80 -33t-33 -80q0 -20 10 -43q7 -16 2 -33.5t-20 -27.5l-1 -1l-110 -61l-1 -1q-10 -4 -21 -4zM641 -53q1 -1 3 -1v0l103 57q-13 33 -13 63q0 66 45 113.5t110 50.5q8 45 8 75t-8 75q-65 3 -110 50.5t-45 112.5
q0 31 13 64l-101 56h-1q-2 0 -3 -1q-16 -16 -38 -32q-47 -33 -88 -33t-89 34q-22 16 -37 32q-2 1 -4 1h-1l-105 -57q14 -33 14 -64q0 -65 -45 -112.5t-110 -50.5q-8 -45 -8 -75t8 -75q65 -3 110 -50.5t45 -113.5q0 -30 -14 -63l100 -55v0h3q16 18 38 34q49 35 91 35t90 -36
q23 -16 39 -34zM512 155q-62 0 -106 44t-44 106.5t44 106.5t106 44t106 -44t44 -106.5t-44 -106.5t-106 -44zM512 405q-41 0 -70 -29t-29 -70.5t29 -70.5t70 -29t70 29t29 70.5t-29 70.5t-70 29z" />
    <glyph glyph-name="set" unicode="&#xe61f;"
d="M662 -106v0q-26 0 -43 18q-16 18 -43 36.5t-51 18.5q-23 0 -50.5 -18.5t-42.5 -35.5q-17 -17 -42 -17q-12 0 -22 4h-1l-110 62l-1 1q-15 10 -20 28.5t2 34.5q11 22 11 45q0 48 -34.5 82t-82.5 34h-4v0q-14 0 -24.5 11.5t-13.5 30.5q-10 50 -10 87q0 38 10 88
q3 19 13.5 30.5t24.5 11.5h4q48 0 82.5 34t34.5 82q0 22 -11 45q-7 16 -2 34.5t20 28.5l1 1l116 63l1 1q10 4 22 4q25 0 42 -17q16 -17 42.5 -34.5t49.5 -17.5t49 17t42 34q17 17 42 17q12 0 22 -4l1 -1l112 -62l1 -1q15 -10 20 -28.5t-2 -35.5q-11 -24 -11 -44
q0 -48 34.5 -82t82.5 -34h4q14 0 24.5 -11.5t14.5 -30.5q9 -50 9 -88t-9 -87q-4 -20 -14.5 -31t-24.5 -11h-4q-48 0 -82.5 -34t-34.5 -82q0 -22 11 -45q7 -16 2 -34.5t-20 -28.5l-1 -1l-114 -63l-1 -1q-10 -4 -21 -4v0zM658 -52q2 -1 4 -1v0l106 59q-14 33 -14 65
q0 67 46.5 116t113.5 53q8 45 8 76t-8 77q-67 4 -113.5 52.5t-46.5 116.5q0 32 14 65l-104 58h-1q-2 0 -4 -1q-16 -17 -39 -32q-48 -35 -90 -35q-43 0 -91 35q-23 16 -39 33q-2 1 -4 1h-1l-108 -59q14 -33 14 -65q0 -68 -46.5 -116.5t-113.5 -52.5q-8 -45 -8 -76.5t8 -76.5
q67 -4 113.5 -53t46.5 -116q0 -32 -14 -65l102 -58h1q2 0 3 1q17 18 39 35q50 36 93 36q44 0 94 -37q23 -17 39 -35v0zM526 162q-65 0 -110 45.5t-45 109.5t45 109.5t109.5 45.5t109.5 -45.5t45 -109.5t-45 -109.5t-109 -45.5v0zM526 419q-43 0 -73 -30t-30 -72t30 -72
t72.5 -30t72.5 30t30 72t-30 72t-72 30v0z" />
    <glyph glyph-name="dingdan" unicode="&#xe622;"
d="M844 752h-61q-13 0 -24 -7.5t-11 -19.5t11.5 -22.5t23.5 -10.5h61q26 0 43 -17t17 -43v-693q0 -27 -17 -43.5t-43 -16.5h-648q-29 0 -52.5 17t-23.5 43v693q0 26 17 43t43 17h76q23 0 23 33q0 27 -23 27h-76q-60 0 -90 -33.5t-30 -88.5v-685q0 -57 33.5 -91.5t93.5 -34.5
h650q62 0 94.5 32t32.5 94v685q0 54 -32 88t-88 34zM256 480.5q0 -12.5 9 -21.5t22 -9h452q12 0 21 9t9 21.5t-9 21.5t-21 9h-452q-13 0 -22 -9t-9 -21.5zM737 345h-450q-13 0 -22 -9t-9 -21.5t9 -22t22 -9.5h452q12 0 21 9.5t9 21.5q-1 13 -10 22t-22 9zM737 164h-450
q-13 0 -22 -9t-9 -21.5t9 -21.5t22 -9h452q12 0 21 9t9 22q-1 13 -10 21.5t-22 8.5zM408 676h210q18 0 31.5 16t13.5 37t-13.5 36.5t-32.5 15.5h-209q-19 0 -32.5 -15.5t-13.5 -36.5t13.5 -37t32.5 -16z" />
    <glyph glyph-name="weixuanze" unicode="&#xe699;"
d="M11 381q0 -101 39.5 -193.5t106.5 -159t159 -106t193.5 -39.5t194 39.5t159 106t106 159t39.5 193.5t-39.5 193.5t-106 159t-159 106t-194 39.5t-193.5 -39.5t-159 -106t-106.5 -159t-39.5 -193.5v0zM74 381q0 89 34.5 169.5t92.5 139t139 93t169.5 34.5t169.5 -34.5
t139.5 -93t93 -139t34.5 -169.5t-34.5 -169.5t-93 -139t-139.5 -93t-169.5 -34.5t-169.5 34.5t-139 93t-92.5 139t-34.5 169.5v0zM74 381z" />
    <glyph glyph-name="point-copy" unicode="&#xe6a2;"
d="M381 382q0 53 37.5 90.5t90.5 37.5t90.5 -37.5t37.5 -89.5q0 -54 -37.5 -91.5t-90.5 -37.5t-90.5 37.5t-37.5 90.5z" />
    <glyph glyph-name="hedeyanghuanyingdenglu" unicode="&#xe6ad;"
d="M551 72q0 -61 -44 -45q-15 6 -15 7l-256 216h-39q-19 0 -32 13t-13 32v181q0 18 13 31.5t32 13.5h47l248 210q3 2 7 4t14 5t18 1t14 -14t6 -33v-622v0v0zM684 265q55 46 54 116t-54 110q-12 7 -23 -2.5t-16 -22.5l-5 -13q3 -4 7 -10t12.5 -24.5t11 -36t-4.5 -40
t-26 -39.5q-11 -15 5.5 -32.5t38.5 -5.5v0v0zM721 618q-5 5 -18 -3t-18 -21t7 -28q110 -94 110.5 -183t-110.5 -186q-16 -15 -2 -37t31 -15q59 27 97 76t47.5 106t-1.5 113.5t-48.5 104.5t-94.5 73v0v0zM721 618z" />
    <glyph glyph-name="xinxi" unicode="&#xe611;"
d="M181 650q-32 0 -54.5 -22.5t-22.5 -53.5v-448q0 -32 22.5 -54.5t54.5 -22.5h667q32 0 54.5 22.5t22.5 54.5v448q0 31 -22.5 53.5t-54.5 22.5h-667v0v0zM848 609q13 0 24 -10l-357 -333l-358 333q11 10 24 10h667v0zM883 552v-377l-203 189l203 188v0zM146 552l203 -188
l-203 -189v377v0zM848 91h-667q-14 0 -24.5 10t-10.5 25v6l7 -8l226 211l121 -113q6 -5 14.5 -5t14.5 5l121 113l226 -210l7 7v-6q0 -15 -10 -25t-25 -10v0z" />
    <glyph glyph-name="bofangliebiao" unicode="&#xe602;"
d="M511.5 894q-103.5 0 -198.5 -40.5t-163.5 -109t-109 -163t-40.5 -198.5t40.5 -198.5t109 -163t163.5 -109t198.5 -40.5t198.5 40.5t163 109t109 163t41 198.5t-41 198.5t-109 163t-163 109t-198.5 40.5zM511 -79q-94 0 -179.5 36.5t-147.5 98.5t-98.5 147.5t-36.5 179.5
t36.5 179.5t98.5 147.5t148 99t179.5 37t179.5 -37t147.5 -99t98.5 -147.5t37 -179.5t-37 -179.5t-98.5 -147.5t-147.5 -98.5t-180 -36.5zM511.5 452q-28.5 0 -48.5 -20t-20 -48.5t20 -49t48.5 -20.5t48.5 20.5t20 49t-20 48.5t-48.5 20zM511.5 565q45.5 0 77.5 32.5t32 78
t-32 77.5t-77.5 32t-78 -32t-32.5 -77.5t32.5 -78t78 -32.5zM511.5 737q25.5 0 43.5 -18t18 -43.5t-18 -43.5t-43.5 -18t-43.5 18t-18 43.5t18 43.5t43.5 18zM341.5 250q-45.5 0 -78 -32.5t-32.5 -78t32 -77.5t78 -32t78 32t32 77.5t-32 78t-77.5 32.5zM341 78q-25 0 -43 18
t-18 43.5t18 43.5t43 18t43 -18t18 -43.5t-18 -43.5t-43 -18zM681.5 250q-45.5 0 -77.5 -32.5t-32 -78t32 -77.5t77.5 -32t78 32t32.5 77.5t-32.5 78t-78 32.5zM681.5 78q-25.5 0 -43.5 18t-18 43.5t18 43.5t43.5 18t43.5 -18t18 -43.5t-18 -43.5t-43.5 -18zM803.5 566
q-45.5 0 -78 -32t-32.5 -77.5t32.5 -78t78 -32.5t78 32.5t32.5 78t-32.5 77.5t-78 32zM803.5 395q-25.5 0 -43.5 18t-18 43.5t18 43.5t43.5 18t43.5 -18t18 -43.5t-18 -43.5t-43.5 -18zM329 456.5q0 45.5 -32 77.5t-77.5 32t-78 -32t-32.5 -77.5t32.5 -78t78 -32.5
t77.5 32.5t32 78zM219.5 395q-25.5 0 -43.5 18t-18 43.5t18 43.5t43.5 18t43.5 -18t18 -43.5t-18 -43.5t-43.5 -18z" />
    <glyph glyph-name="gengduojiaru" unicode="&#xe603;"
d="M1024 445h-451v451h-122v-451h-451v-122h451v-451h122v451h451v122z" />
    <glyph glyph-name="guanbi" unicode="&#xe604;"
d="M831 789l-319 -318l-319 318l-86 -86l318 -319l-318 -319l86 -86l319 318l319 -318l86 86l-318 319l318 319z" />
    <glyph glyph-name="jidinghe" unicode="&#xe605;" horiz-adv-x="2048"
d="M1994 477l39 24l-244 393h-1481l-291 -389l37 -28v0h-46v-464q0 -58 40.5 -98.5t97.5 -40.5h1755q58 0 98.5 40.5t40.5 98.5v464h-46zM354 802h1383l174 -279h-1764zM1948 13q0 -19 -13.5 -33t-32.5 -14h-1755q-20 0 -33.5 14t-13.5 33v417h1848v-417zM1716.5 106
q38.5 0 65.5 27t27 65.5t-27 65.5t-65 27t-65.5 -27t-27.5 -65.5t27 -65.5t65.5 -27zM1393.5 106q38.5 0 65.5 27t27 65.5t-27 65.5t-65.5 27t-65.5 -27t-27 -65.5t27 -65.5t65.5 -27zM1163 245h-970v-93h970v93z" />
    <glyph glyph-name="jiemu" unicode="&#xe606;" horiz-adv-x="1161"
d="M219 748q-30 0 -51 -21t-21 -51t21 -51t51 -21t51 21t21 51t-21 51t-51 21zM1086 784v0l-181 -105v103q0 44 -31.5 76t-76.5 32h-686q-45 0 -77 -32t-32 -76v-688q0 -45 32 -76.5t77 -31.5h153q-53 -45 -78 -108h80q29 50 79 79t109 29t109 -29t78 -79h81q-26 63 -78 108
h153q45 0 76.5 32t31.5 76v104l181 -104h72v690h-72zM833 94q0 -15 -10.5 -25.5t-25.5 -10.5h-686q-15 0 -25.5 10.5t-10.5 25.5v688q0 15 10.5 25.5t25.5 10.5h686q15 0 25.5 -10.5t10.5 -25.5v-688zM1086 177l-181 104v314l181 105v-523z" />
    <glyph glyph-name="quanbubofang" unicode="&#xe608;"
d="M512 896q-104 0 -199 -40.5t-163.5 -109t-109 -163.5t-40.5 -199t40.5 -199t109 -163.5t163.5 -109t199 -40.5t199 40.5t163.5 109t109 163.5t40.5 199t-40.5 199t-109 163.5t-163.5 109t-199 40.5zM512 -64q-91 0 -174 35.5t-143 95.5t-95.5 143t-35.5 174t35.5 174
t95.5 143t143 95.5t174 35.5t174 -35.5t143 -95.5t95.5 -143t35.5 -174t-35.5 -174t-95.5 -143t-143 -95.5t-174 -35.5zM416 224l278 160l-278 160v-320z" />
    <glyph glyph-name="xinweixuanzhong" unicode="&#xe609;" horiz-adv-x="1118"
d="M786 896q-134 0 -227 -93q-94 93 -227 93q-87 0 -160.5 -42t-116 -114t-42.5 -157q0 -110 71 -197q4 -5 450 -503q10 -11 25 -11v0q15 0 26 11l450 505q70 85 70 195q0 85 -43 157t-116.5 114t-159.5 42zM983 432l-424 -475q-414 463 -423 474q-55 67 -55 152
q0 101 73.5 173t177.5 72q59 0 111.5 -25.5t88.5 -71.5q9 -13 26.5 -13t27.5 13q36 46 88 71.5t112 25.5q103 0 177 -72t74 -173q-1 -85 -54 -151z" />
    <glyph glyph-name="xinxuanzhong" unicode="&#xe60a;" horiz-adv-x="1118"
d="M786 896q-134 0 -227 -93q-94 93 -227 93q-87 0 -160.5 -42t-116 -114t-42.5 -157q0 -110 71 -197q4 -5 450 -503q10 -11 25 -11v0q15 0 26 11l450 505q70 85 70 195q0 85 -43 157t-116.5 114t-159.5 42zM983 432l-424 -475q-414 463 -423 474q-55 67 -55 152
q0 101 73.5 173t177.5 72q59 0 111.5 -25.5t88.5 -71.5q9 -13 26.5 -13t27.5 13q36 46 88 71.5t112 25.5q103 0 177 -72t74 -173q-1 -85 -54 -151zM559 -112q-8 0 -13 6l-43 48q-401 448 -406 455q-68 82 -68 186q0 123 88.5 210t214.5 87q127 0 215 -89l12 -11l11 11
q89 89 216 89q125 0 213.5 -87t88.5 -210q0 -104 -66 -185l-450 -504q-5 -6 -13 -6zM786 863q118 0 202 -82t84 -198q0 -98 -62 -174l-450 -504h-2l-23 26q-416 465 -426 476q-64 78 -64 176q0 116 84 198t203 82q120 0 203 -83l24 -23l23 23q83 83 204 83zM786 896
q-134 0 -227 -93q-94 93 -227 93q-87 0 -160.5 -42t-116 -114t-42.5 -157q0 -110 71 -197q2 -3 450 -503q10 -11 25 -11v0q15 0 26 11l450 505q70 85 70 195q0 85 -43 157t-116.5 114t-159.5 42v0z" />
    <glyph glyph-name="anonymous-iconfont" unicode="&#xe600;"
d="M272.5 -95q-4.5 0 -7.5 3t-3 7t3 7l472 462l-472 462q-3 3 -3 7t3 7t7.5 3t7.5 -3l479 -469q3 -3 3 -7t-3 -7l-479 -469q-3 -3 -7.5 -3zM273 884q-13 0 -22.5 -9t-9.5 -22t9 -22l456 -447l-456 -447q-9 -9 -9 -22t9 -22t22.5 -9t22.5 9l479 469q9 9 9 22t-9 22l-479 469
q-9 9 -22 9v0z" />
    <glyph glyph-name="dingyue" unicode="&#xe601;" horiz-adv-x="1025"
d="M1022.5 500.5q-5.5 16.5 -22.5 19.5l-320 46l-143 287q-7 16 -25 16t-25 -16l-143 -287l-320 -46q-17 -3 -22.5 -19.5t7.5 -28.5l231 -224l-55 -316q-3 -17 11.5 -27.5t29.5 -2.5l286 149l286 -149q6 -3 13 -3q9 0 17 5q14 11 11 28l-55 316l231 224q13 12 7.5 28.5z
M717 285q-10 -10 -7 -23l44 -254l-230 120q-6 3 -12.5 3t-12.5 -3l-230 -120l44 254q3 13 -7 23l-186 180l257 37q13 2 20 14l115 223l114 -223q7 -12 20 -14l245 -41z" />
    <glyph glyph-name="dingyuexuanzhongzhuangtai" unicode="&#xe607;" horiz-adv-x="1025"
d="M1022.5 500.5q-5.5 16.5 -22.5 19.5l-320 46l-143 287q-7 16 -25 16t-25 -16l-143 -287l-320 -46q-17 -3 -22.5 -19.5t7.5 -28.5l231 -224l-55 -316q-3 -17 11.5 -27.5t29.5 -2.5l286 149l286 -149q6 -3 13 -3q9 0 17 5q14 11 11 28l-55 316l231 224q13 12 7.5 28.5z" />
    <glyph glyph-name="paixushanchuzhongdeshanchuanniu" unicode="&#xe60b;"
d="M512 896q-139 0 -257 -68.5t-186.5 -186.5t-68.5 -257t68.5 -257t186.5 -186.5t257 -68.5t257 68.5t186.5 186.5t68.5 257t-68.5 257t-186.5 186.5t-257 68.5zM751 192l-47 -47l-175 175l-175 -175l-47 47l175 175l-175 175l47 47l175 -175l175 175l47 -47l-175 -175z
" />
    <glyph glyph-name="pindao" unicode="&#xe60c;" horiz-adv-x="1161"
d="M1119 896h-1078q-17 0 -29 -13t-12 -31v-726q0 -19 12 -31.5t29 -12.5h484v-116h-83v-88h249v88h-83v116h511q17 0 29.5 12.5t12.5 31.5v726q0 18 -12.5 31t-29.5 13zM1078 169h-995v640h995v-640z" />
    <glyph glyph-name="sousuo" unicode="&#xe60d;" horiz-adv-x="1161"
d="M1064 36l-171 171q71 111 71 241q0 91 -35.5 174t-95.5 143t-143 95.5t-174 35.5t-173.5 -35.5t-142.5 -95.5t-95.5 -143t-35.5 -174t35.5 -174t95.5 -143t142.5 -95.5t173.5 -35.5q131 0 241 71l171 -171q28 -28 67.5 -28t68 28t28.5 68t-28 68zM723 125
q-95 -61 -207 -61q-104 0 -192 51.5t-139.5 140t-51.5 192.5t51.5 192.5t139.5 140t192 51.5t192.5 -51.5t140 -140t51.5 -192.5q0 -112 -61 -207q-46 -71 -116 -116zM1018 -55q-9 -9 -22.5 -9t-22.5 9l-164 165q24 21 45 45l164 -164q10 -10 10 -23t-10 -23z" />
    <glyph glyph-name="wode" unicode="&#xe60e;" horiz-adv-x="1161"
d="M1048 86q-39 103 -117 180.5t-179 115.5q50 41 78.5 99.5t28.5 125.5q0 119 -83.5 203t-201.5 84t-201.5 -84t-83.5 -203q0 -67 28.5 -125.5t78.5 -98.5q-102 -39 -179 -116t-116 -181l-3 -5v-113q0 -40 28 -68t68 -28h761q39 0 67 28t28 68v113zM352 606.5
q0 92.5 65 158.5t157 66t157 -66t65 -158.5t-65 -158t-157 -65.5t-157 65.5t-65 158zM986 -32q0 -13 -9 -22.5t-22 -9.5h-761q-14 0 -23 9.5t-9 22.5v101q40 102 121.5 173.5t186.5 96.5v0q51 -20 104 -20t103 20q104 -25 186.5 -97t122.5 -173v-101z" />
    <glyph glyph-name="anonymous-iconfont1" unicode="&#xe60f;"
d="M293 743l363 -363l-358 -358q-15 -14 -15 -34.5t15 -35.5t35.5 -15t34.5 15l388 388q2 1 3 3l3 3q15 15 15 36t-15 36l-397 397q-15 15 -36 15t-36 -15t-15 -36t15 -36z" />
    <glyph glyph-name="baocuo" unicode="&#xe7a3;"
d="M512 874q-100 0 -190.5 -38.5t-156.5 -104.5t-104.5 -156.5t-38.5 -190.5q0 -126 60 -235q4 -14 16 -23t27 -9q18 0 31 13t13 31v4q-2 10 -4.5 17t-4.5 9l-1 2q-21 43 -35.5 96t-14.5 96q0 109 54 201.5t146.5 146t201.5 53.5t201.5 -53.5t146.5 -146.5t54 -202
t-54 -201.5t-146.5 -146t-201.5 -53.5q-130 0 -236 77q-13 15 -33 15q-18 0 -31 -13.5t-13 -31.5v-4q0 -15 9.5 -27t23.5 -16q127 -89 281 -89q99 0 190 38.5t156.5 104.5t104.5 156.5t39 190.5t-38.5 190.5t-104.5 156.5t-156.5 104.5t-190.5 38.5zM508 134q22 0 37.5 15.5
t15.5 37.5t-15.5 37.5t-37.5 15.5t-37.5 -15.5t-15.5 -37.5t15.5 -37.5t37.5 -15.5zM508 293q22 0 37.5 15.5t15.5 37.5v243q0 22 -15.5 37.5t-37.5 15.5t-37.5 -15.5t-15.5 -37.5v-243q0 -22 15.5 -37.5t37.5 -15.5z" />
    <glyph glyph-name="fanye-shangyiye" unicode="&#xe7a6;"
d="M446 384l330 330q27 27 27 65.5t-27.5 66t-66 27.5t-65.5 -28l-396 -395q-27 -27 -27 -66t27 -66l396 -395q27 -28 65.5 -28t66 27.5t27.5 66t-27 65.5z" />
    <glyph glyph-name="jiatingqiehuan" unicode="&#xe7bb;"
d="M566 17l316 738l-738 -316l358 -63z" />
    <glyph glyph-name="keting" unicode="&#xe7bc;"
d="M945 583v57q0 53 -37.5 90t-90.5 37h-613q-53 0 -90 -37t-37 -90v-57q-34 -8 -55.5 -35.5t-21.5 -62.5v-485h1021v485q0 35 -21.5 62.5t-54.5 35.5zM204 717h613q32 0 54 -22.5t22 -54.5v-57q-33 -8 -54.5 -35.5t-21.5 -62.5v-77h-613v77q0 35 -22 62.5t-55 35.5v57
q0 32 22.5 54.5t54.5 22.5zM817 357v-77h-281v77h281zM204 357h281v-77h-281v77zM971 49h-921v436q0 22 15.5 37.5t37.5 15.5t36.5 -15.5t14.5 -37.5v-256h713v256q0 22 15 37.5t37 15.5t37 -15.5t15 -37.5v-436v0z" />
    <glyph glyph-name="shufang" unicode="&#xe7bd;"
d="M129 797v-273h446v273h-446zM539 566h-374v188h374v-188zM2 482v-106h1022v106h-1022zM983 416h-941v25h941v-25zM53 376h41v-376h-41v376zM608 376h41v-376h-41v376zM933 376h41v-376h-41v376zM639 253h303v-21h-303v21zM642 42h300v-41h-300v41zM767 329h51v-31h-51v31
zM767 185h52v-25h-52v25zM385 524h54v-42h-54v42zM268 524h55v-42h-55v42z" />
    <glyph glyph-name="ketingyi" unicode="&#xe7be;"
d="M192 679q-36 0 -61.5 -25.5t-25.5 -61.5v-60q-25 -5 -41.5 -25.5t-16.5 -47.5v-297q0 -25 16.5 -43.5t41.5 -20.5v-44q0 -6 4 -10.5t10 -4.5h59q6 0 10 4.5t4 10.5v43h640v-43q0 -6 4 -10.5t10 -4.5h59q6 0 10 4.5t4 10.5v44q24 2 41 20.5t17 43.5v297q0 27 -16.5 47.5
t-41.5 25.5v60q0 36 -25.5 61.5t-61.5 25.5h-116q-46 0 -73 -40q-26 40 -73 40h-116q-47 0 -73 -40q-26 40 -72 40h-117zM192 650h116q25 0 42 -17t17 -42v-233h-176v-13h1v43q6 0 10 4.5t4 9.5q15 1 15 15t-15 15q0 6 -4 10t-10 4v13q0 26 -16.5 46.5t-41.5 25.5v60
q0 25 17 42t41 17zM454 650h116q24 0 41 -17t17 -42v-233h-233v74v159q1 25 17.5 42t41.5 17zM716 650h116q24 0 41 -17t17 -42v-60q-25 -5 -41.5 -25.5t-16.5 -46.5v-13q-6 0 -10 -4.5t-4 -9.5q-15 -1 -15 -15t15 -15q0 -6 4 -10t10 -4v-29h-175v73v160q0 24 17 41t42 17z
M192 621q-6 0 -10 -4.5t-4 -10.5q-15 0 -15 -14.5t15 -14.5q-1 -9 6.5 -13t15 0t7.5 13q14 0 14 14.5t-14 14.5q-1 6 -5 10.5t-10 4.5zM308 621q-6 0 -10 -4.5t-4 -10.5q-14 0 -14 -14.5t14 -14.5q0 -9 7 -13t14.5 0t7.5 13q14 0 14 14.5t-14 14.5q0 6 -4.5 10.5t-10.5 4.5z
M454 621q-6 0 -10.5 -4.5t-4.5 -10.5q-14 0 -14 -14.5t14 -14.5q0 -9 7.5 -13t14.5 0t7 13q15 0 15 14.5t-15 14.5q0 6 -4 10.5t-10 4.5zM570 621q-6 0 -10 -4.5t-4 -10.5q-15 0 -15 -14.5t15 -14.5q-1 -9 6.5 -13t15 0t7.5 13q14 0 14 14.5t-14 14.5q0 6 -4.5 10.5
t-10.5 4.5zM715 621q-6 0 -10 -4.5t-4 -10.5q-14 0 -14 -14.5t14 -14.5q0 -9 7 -13t14.5 0t7.5 13q14 0 14 14.5t-14 14.5q0 6 -4.5 10.5t-10.5 4.5zM832 621q-6 0 -10 -4.5t-4 -10.5q-15 0 -15 -14.5t15 -14.5q-1 -9 6.5 -13t15 0t7.5 13q14 0 14 14.5t-14 14.5
q-1 6 -5 10.5t-10 4.5zM250 534q-6 0 -10 -4.5t-4 -10.5q-15 0 -15 -14.5t15 -14.5q-1 -9 6.5 -13t15 0t7.5 13q14 0 14 14.5t-14 14.5q0 6 -4.5 10.5t-10.5 4.5zM512 534q-6 0 -10 -4.5t-4 -10.5q-15 0 -15 -14.5t15 -14.5q-1 -9 6.5 -13t15 0t7.5 13q14 0 14 14.5
t-14 14.5q-1 6 -5 10.5t-10 4.5zM774 534q-6 0 -10.5 -4.5t-4.5 -10.5q-14 0 -14 -14.5t14 -14.5q0 -9 7.5 -13t14.5 0t7 13q15 0 15 14.5t-15 14.5q0 6 -4 10.5t-10 4.5zM119 504q18 0 31 -13t13 -32v-333h-52q-15 0 -25 10.5t-10 25.5v297q0 19 12.5 32t30.5 13zM905 504
q18 0 30.5 -13t12.5 -32v-297q0 -15 -10 -25.5t-25 -10.5h-52v333q0 19 13 32t31 13zM308 446q-6 0 -10 -4.5t-4 -9.5q-14 -1 -14 -15t14 -15q0 -9 7 -12.5t14.5 0t7.5 12.5q14 1 14 15t-14 15q0 6 -4.5 10t-10.5 4zM454 446q-6 0 -10.5 -4.5t-4.5 -9.5q-14 -1 -14 -15
t14 -15q0 -9 7.5 -12.5t14.5 0t7 12.5q15 1 15 15t-15 15q0 6 -4 10t-10 4zM570 446q-6 0 -10 -4.5t-4 -9.5q-15 -1 -15 -15t15 -15q-1 -9 6.5 -12.5t15 0t7.5 12.5q14 1 14 15t-14 15q0 6 -4.5 10t-10.5 4zM715 446q-5 0 -9.5 -4.5t-4.5 -9.5q-14 -1 -14 -15t14 -15
q0 -9 7 -12.5t14.5 0t7.5 12.5q14 1 14 15t-14 15q0 6 -4.5 10t-10.5 4zM192 330h640v-59h-640v59zM192 242h640v-116h-640v116zM134 97h29v-29h-29v29zM861 97h29v-29h-29v29z" />
    <glyph glyph-name="woshiyi" unicode="&#xe7bf;"
d="M883 430v225q0 28 -24 53t-51 25h-614q-28 0 -48.5 -25t-20.5 -53v-225q-35 -10 -57.5 -39.5t-22.5 -66.5v-100q0 -45 32 -77t78 -32h9v-100q0 -12 9 -21t21 -9t21 9t9 21v100h539v-100q0 -12 8.5 -21t21 -9t21 9t8.5 21v100h30q45 0 77.5 32t32.5 77v100q0 37 -22 66
t-57 40zM185 654q0 4 3.5 10.5t6.5 8.5h612q4 -1 9.5 -8t6.5 -11v-220h-113v37q0 31 -22.5 53.5t-54.5 22.5h-274q-31 0 -53.5 -22.5t-22.5 -53.5v-37h-97zM670 471v-37h-347v37q0 15 10.5 25.5t25.5 10.5h274q15 0 26 -10.5t11 -25.5zM903 224q0 -20 -15 -34.5t-35 -14.5
h-698q-21 0 -35.5 14.5t-14.5 34.5v100q0 21 15 35.5t35 14.5h698q21 0 35.5 -14.5t14.5 -35.5v-100z" />
    <glyph glyph-name="woshi" unicode="&#xe7c0;" horiz-adv-x="1038"
d="M994 438v196q-74 79 -182 79q-11 0 -16 -1q-52 59 -124.5 92t-154.5 33t-154 -33t-125 -92q-5 1 -16 1q-108 0 -182 -79v-196q-15 -5 -24.5 -18t-9.5 -29v-345q0 -21 14.5 -35.5t35.5 -14.5h87q20 0 35 15t15 35v31q0 10 7 17.5t18 7.5h598q10 0 17.5 -7.5t7.5 -17.5v-30
q0 -21 14.5 -35.5t35.5 -14.5h87q21 0 35.5 14.5t14.5 35.5v344q0 16 -9.5 29t-24.5 18zM91 613q47 41 110 49q7 1 22 1q20 0 37 -4q17 23 37 42q94 86 220 86q127 0 220 -86q22 -21 38 -42q20 4 37 4q7 0 22 -1q63 -7 109 -49v-173h-46q-23 55 -73 89t-111 34t-111 -34
t-73 -89h-30q-23 55 -73 89t-111 34t-111 -34t-73 -89h-40v173v0zM842 440h-256q20 34 54 53.5t74 19.5t74 -19.5t54 -53.5zM444 440h-257q20 34 54 53.5t74 19.5q41 0 75 -19.5t54 -53.5zM978 71q0 -10 -7 -17.5t-18 -7.5h-37q-10 0 -17.5 7.5t-7.5 17.5v30q0 9 -4 19
q-13 31 -46 31h-647q-15 0 -27.5 -8.5t-18.5 -22.5q-4 -8 -4 -19v-31q0 -10 -7 -17t-18 -7h-37q-10 0 -17.5 7t-7.5 18v294q0 10 7.5 17.5t17.5 7.5h871q11 0 18 -7.5t7 -17.5v-294z" />
    <glyph glyph-name="bofang" unicode="&#xe7c3;"
d="M512 896q-139 0 -257 -68.5t-186.5 -186.5t-68.5 -257t68.5 -257t186.5 -186.5t257 -68.5t257 68.5t186.5 186.5t68.5 257t-68.5 257t-186.5 186.5t-257 68.5zM512 -64q-185 0 -316.5 131.5t-131.5 316.5t131.5 316.5t316.5 131.5t316.5 -131.5t131.5 -316.5
t-131.5 -316.5t-316.5 -131.5zM384 640l384 -256l-384 -256v512z" />
    <glyph glyph-name="duihao" unicode="&#xe7c1;"
d="M417 98q-26 0 -45 18l-253 254q-18 19 -18 45t18.5 44.5t44.5 18.5t45 -18l208 -209l398 399q18 19 44 19t45 -19q19 -18 19 -44.5t-19 -44.5l-442 -444q-19 -19 -45 -19z" />
    <glyph glyph-name="guanbi1" unicode="&#xe7c2;"
d="M837 703q-66 66 -150 101t-176 35t-176 -35t-149.5 -100.5t-100.5 -149.5t-35 -176t35 -176t100.5 -149.5t149.5 -100.5t176 -35t176 35t150 100q88 88 119.5 207t0 237.5t-119.5 206.5zM723 193q6 -6 6 -14t-6 -13.5t-13.5 -5.5t-13.5 5l-185 185l-184 -185
q-6 -5 -14 -5q-7 0 -13 5q-6 6 -6 14t6 14l184 184l-184 185q-6 6 -6 14t5.5 13.5t13.5 5.5t14 -6l184 -185l185 185q6 6 14 6t13.5 -5.5t5.5 -13.5t-6 -14l-184 -185z" />
    <glyph glyph-name="quanxuan" unicode="&#xe7c4;"
d="M984 584q-42 94 -110 162q-69 69 -163 110q-93 40 -200 40q-106 0 -199 -40q-94 -42 -162 -110q-69 -69 -110 -162q-40 -93 -40 -199q0 -107 40 -200q41 -94 110 -163t162 -110q93 -40 199 -40q107 0 200 40q94 41 163 110t110 163q40 93 40 200q0 106 -40 199zM751 503
l-286 -288h-1v-1q-1 -1 -7 -5q-1 0 -2.5 -1t-1.5 -2q-7 -2 -13.5 -2t-13.5 2q0 1 -1.5 2t-2.5 1q-6 4 -7 5v1h-1l-140 144q-10 11 -10 25.5t10 25.5q11 10 26 10t25 -11l115 -118l260 262q11 11 25.5 11t25.5 -10q10 -11 10 -25.5t-10 -25.5z" />
    <glyph glyph-name="zuijinbofang" unicode="&#xe7c9;"
d="M511.5 832q-91.5 0 -174 -35.5t-142.5 -95.5t-95.5 -142.5t-35.5 -174t35.5 -174t95.5 -142.5t142.5 -95.5t174 -35.5t174 35.5t142.5 95.5t95.5 142.5t35.5 174.5q0 90 -35.5 173t-95.5 143t-142.5 95.5t-174 35.5zM511.5 -8q-106.5 0 -196.5 52.5t-142.5 143
t-52.5 196.5t52.5 196.5t142.5 143t196.5 52.5t196.5 -52.5t142.5 -143t52.5 -196.5t-52 -196.5t-142.5 -143t-197 -52.5zM762 385h-236v236q0 6 -7 10.5t-16 4.5h-11q-9 0 -15.5 -4t-6.5 -11v-277q0 -7 5 -11q4 -5 10 -5h277q7 0 11.5 7t4.5 16v11q-1 9 -5.5 16t-10.5 7z
" />
    <glyph glyph-name="myhomeguanbi1" unicode="&#xe7c5;"
d="M837 703q-66 66 -150 101t-176 35t-176 -35t-149.5 -100.5t-100.5 -149.5t-35 -176t35 -176t100.5 -149.5t149.5 -100.5t176 -35t176 35t150 100q88 88 119.5 207t0 237.5t-119.5 206.5zM723 193q6 -6 6 -14t-6 -13.5t-13.5 -5.5t-13.5 5l-185 185l-184 -185
q-6 -5 -14 -5q-7 0 -13 5q-6 6 -6 14t6 14l184 184l-184 185q-6 6 -6 14t5.5 13.5t13.5 5.5t14 -6l184 -185l185 185q6 6 14 6t13.5 -5.5t5.5 -13.5t-6 -14l-184 -185z" />
    <glyph glyph-name="myhomeduihao" unicode="&#xe7c6;"
d="M417 98q-26 0 -45 18l-253 254q-18 19 -18 45t18.5 44.5t44.5 18.5t45 -18l208 -209l398 399q18 19 44 19t45 -19q19 -18 19 -44.5t-19 -44.5l-442 -444q-19 -19 -45 -19z" />
    <glyph glyph-name="myhomequanxuan" unicode="&#xe7c7;"
d="M954 571q-38 88 -102.5 152.5t-152.5 102.5t-187 38q-101 0 -187 -38q-88 -38 -152 -103q-65 -64 -103 -152q-38 -86 -38 -187q0 -99 38 -187t103 -152q64 -65 152 -103q86 -38 187 -38q99 0 187 38t152.5 102.5t102.5 152.5t38 187q0 101 -38 187zM736 496l-268 -271h-1
v0q-1 -2 -7 -5q-1 0 -2 -1t-1 -2q-7 -2 -13 -2t-12 2l-2 2t-2 1q-6 3 -7 5v0h-1l-131 135q-10 11 -9.5 24.5t9.5 23.5q10 10 24 9.5t24 -9.5l108 -111l244 246q9 10 23 10t24 -10q9 -10 9 -24t-9 -23z" />
    <glyph glyph-name="wenhao" unicode="&#xe7dc;"
d="M383 865q-131 -35 -224.5 -129t-128 -222t0.5 -259q18 -67 55 -128q14 -24 41 -24q20 0 33.5 13.5t13.5 33.5q0 12 -6 23h1q-31 50 -46 107q-28 105 0 208.5t103.5 179.5t181 104.5t209 0.5t180 -103.5t104.5 -181t0 -209t-103.5 -179.5t-181.5 -104q-85 -22 -165.5 -9.5
t-150.5 55.5v0q-11 5 -22 5q-20 0 -34 -13.5t-14 -33.5q0 -27 24 -41v0q86 -52 184.5 -67t202.5 11q131 35 224.5 129t128 222t-0.5 258.5t-129 224t-222 128.5t-259 0zM592 358q1 1 12 7.5t16.5 10.5t16.5 13t17.5 18t13.5 21.5t10.5 27.5t3.5 32q0 58 -40 100t-88 53
q-106 21 -168 -46q-29 -32 -38.5 -64t-9.5 -92h90v18q0 19 2 31.5t7.5 27t19.5 24t35 13.5q48 10 80 -21q16 -14 13.5 -42.5t-25.5 -44.5l-52 -34q-39 -26 -39 -72v-104h90v70q0 31 33 53zM514 199q-19 0 -33 -13.5t-14 -32.5t13.5 -33t33 -14t33 14t13.5 33t-13.5 32.5
t-32.5 13.5z" />
    <glyph glyph-name="qiehuan" unicode="&#xe7de;"
d="M512 891q-103 0 -197 -40t-162 -108t-108 -162t-40 -197t40 -197t108 -162t162 -108t197 -40t197 40t162 108t108 162t40 197t-40 197t-108 162t-162 108t-197 40zM511 54h-31v283h-282v31l564 251z" />
    <glyph glyph-name="bianji1" unicode="&#xe7e0;"
d="M925 891h-826q-38 0 -66 -28t-28 -66v-833q0 -33 28.5 -60t65.5 -27h826q37 0 65.5 28.5t28.5 65.5v826q0 38 -28.5 66t-65.5 28zM295 818h434v-145q0 -29 -18.5 -50.5t-53.5 -21.5h-290q-35 0 -53.5 21.5t-18.5 50.5v145zM295 -50v217q0 30 18.5 51t53.5 21h73v-289
h-145zM512 -50v289h145q35 0 53.5 -21t18.5 -51v-217h-217v0zM946 58q0 -43 -18.5 -75.5t-53.5 -32.5h-73v289q0 38 -17 55.5t-55 17.5h-434q-38 0 -55 -17.5t-17 -55.5v-289h-73q-35 0 -53.5 32.5t-18.5 75.5v666q0 41 18 67.5t54 26.5h73v-217q0 -38 17 -55t55 -17h434
q38 0 55 17t17 55v217h73q36 0 54 -26.5t18 -67.5v-666z" />
    <glyph glyph-name="touyingdaodianshi" unicode="&#xe7e2;"
d="M968 779h-912q-12 0 -21 -9t-9 -22v-546q0 -13 9 -22t21 -9h196q12 0 21 9t9 21.5t-9 21.5t-21 9h-165v486h850v-486h-165q-12 0 -21 -9t-9 -21.5t9 -21.5t21 -9h196q12 0 21 9t9 22v546q0 13 -9 22t-21 9zM536 281q-9 12 -24 12t-24 -12l-182 -243q-7 -8 -7 -18
q0 -8 4 -14q3 -7 11 -12t16 -5v0h364v0q8 0 16 5t11 12q4 6 4 14q0 10 -7 18z" />
    <glyph glyph-name="jiejueliao" unicode="&#xe610;"
d="M959 469q-7 27 -29 56t-45 43q-37 21 -78 21h-1h-101q16 47 21 105v3q0 62 -18 106q-6 17 -21 36.5t-29 30.5q-32 23 -70 26h-13q-27 0 -53 -8q-47 -15 -67 -63q-11 -22 -19 -71v-1v-3t-1 -2q-3 -19 -4 -24q-8 -36 -32 -82t-49 -73q-31 -33 -69 -56q-25 -15 -54 -15v0
h-117q-31 0 -53.5 -22.5t-22.5 -53.5v-373q0 -32 22.5 -54t53.5 -22h163q33 0 96 -20l1 -1q41 -13 67.5 -20t82.5 -14.5t121 -7.5h1q129 0 188 65q13 15 24.5 40t13.5 46q40 30 50 73q8 36 -4 72q33 32 39 72q1 8 1 17q0 29 -12 55q13 25 18 52q3 15 3 30q0 19 -4 37v0z
M869 326q13 -18 10 -38q-4 -21 -32 -40q-17 -11 -17 -31q0 -11 6 -21q14 -25 9 -45q-5 -22 -33 -38q-7 -4 -12.5 -13.5t-5.5 -18.5v-4q2 -28 -21 -52q-37 -40 -131 -40h-2q-58 0 -109.5 7t-75.5 13.5t-62 18.5q-64 21 -101 24v387q14 5 28 13q61 38 115 114t70 146
q2 10 6 33q6 39 12.5 54.5t21.5 20.5q41 13 69 -7q36 -27 37 -111q-4 -57 -22 -98q-5 -12 -5 -25q0 -25 18.5 -43t43.5 -18h120q23 0 41 -11q31 -18 39 -52q9 -37 -20 -82q-6 -9 -6 -20q0 -13 9 -23v0zM109 422q0 1 1 1h107v-375h-107q-1 0 -1 1v373z" />
    <glyph glyph-name="czr_jiantoushang" unicode="&#xe7ef;"
d="M848 128l-336 367l-340 -372q-19 -19 -44 -19q-27 0 -46 20.5t-19 49.5q0 28 18 48v0l385 421q19 21 46 21v0q27 0 46 -21v0l385 -421q18 -20 18 -48q0 -29 -19 -49.5t-46 -20.5q-29 0 -48 24z" />
    <glyph glyph-name="tianjia" unicode="&#xe7f7;"
d="M512 889q-103 0 -196.5 -40t-161 -107.5t-107.5 -161t-40 -196.5t40 -196.5t107.5 -161t161 -107.5t196.5 -40t196.5 40t161 107.5t107.5 161t40 196.5t-40 196.5t-107.5 161t-161 107.5t-196.5 40zM512 -70q-92 0 -176.5 36t-145 96.5t-96.5 145t-36 176.5t36 176.5
t96.5 145t145 96.5t176.5 36t176.5 -36t145 -96.5t96.5 -145t36 -176.5t-36 -176.5t-96.5 -145t-145 -96.5t-176.5 -36zM546 602h-67v-192h-192v-68h192v-192h67v192h193v68h-193v192z" />
    <glyph glyph-name="shezhi" unicode="&#xe7f8;" horiz-adv-x="1044"
d="M1040 456q-3 17 -17.5 31.5t-31.5 18.5l-17 4q-64 19 -98 76q-33 59 -18 123l6 16q5 17 -1 36.5t-19 30.5q-16 14 -61 39q-20 12 -36 20t-22 10l-6 3q-17 6 -37 1t-32 -17l-12 -13q-48 -46 -116 -46t-116 46l-12 13q-12 12 -32 17t-36 -1q-20 -7 -65 -33q-20 -11 -35 -21
l-21 -14l-5 -4q-13 -11 -19 -30.5t-1 -36.5l5 -16q16 -65 -18 -123q-34 -57 -98 -76l-17 -4q-16 -4 -30.5 -18.5t-17.5 -31.5q-4 -21 -4 -72q0 -23 1 -41t2 -24l1 -7q3 -17 17 -31.5t31 -18.5l16 -4q66 -19 99 -77q34 -58 18 -123l-5 -15q-5 -17 1 -36.5t19 -30.5
q16 -14 61 -39q20 -12 36 -20t23 -10l6 -3q16 -6 36 -1t32 18l11 12q50 46 117 46q68 0 117 -47l11 -12q12 -12 32 -17t37 1q19 7 64 33q20 11 35.5 21t20.5 13.5t5 4.5q13 11 19 30.5t1 36.5l-5 16q-16 65 18 122q34 58 99 77l16 4q16 4 30.5 18.5t17.5 31.5q4 21 4 72
q0 23 -1 41t-2 24zM522 178q-86 0 -147 60.5t-61 145.5t61 145.5t147 60.5t147 -60.5t61 -145.5t-61 -145.5t-147 -60.5z" />
    <glyph glyph-name="huadongshanchu" unicode="&#xe7fa;"
d="M512 893q-104 0 -198 -40t-162.5 -108.5t-108.5 -162.5t-40 -198t40 -198t108.5 -162.5t162.5 -108.5t198 -40t198 40t162.5 108.5t108.5 162.5t40 198t-40 198t-108.5 162.5t-162.5 108.5t-198 40zM799 398q0 -18 -12.5 -30.5t-29.5 -12.5h-481q-17 0 -30 12.5t-13 30.5
v1q0 17 13 29.5t30 12.5h481q17 0 29.5 -12.5t12.5 -29.5v-1z" />
    <glyph glyph-name="shujutongji-shoufangfenxi" unicode="&#xe7fd;"
d="M882 812h-135v46q-3 8 -15 9.5t-25 -7.5t-15 -27v-21l-362 -1v23q0 23 -28 31q-25 8 -27 -5v-47h-124q-62 0 -92.5 -35.5t-30.5 -81.5v-674q0 -64 34 -93t83 -29h735q59 0 87.5 35.5t28.5 82.5v668q0 56 -29 91t-85 35v0zM838 298l-160 -160q-27 -29 -53 -11
q-22 14 -15 39q4 12 15 21l113 115h-526q-28 1 -40.5 18.5t-1.5 35t42 17.5h526l-120 120q-12 11 -14 24t4 22t16 15t22.5 3.5t23.5 -12.5l168 -169q15 -16 18.5 -29t-1 -23.5t-17.5 -25.5v0z" />
    <glyph glyph-name="shujutongji-liuliangfenxi" unicode="&#xe7fe;"
d="M512 874q-100 0 -190.5 -38.5t-156.5 -104.5t-104.5 -156.5t-38.5 -190.5t38.5 -190.5t104.5 -156.5t156.5 -104.5t190.5 -38.5t190.5 38.5t156.5 104.5t104.5 156.5t38.5 190.5t-38.5 190.5t-104.5 156.5t-156.5 104.5t-190.5 38.5zM902 325h-119q-26 0 -33 19
q-1 0 -1 -0.5t0 0.5l-34 94l-80 -228q-8 -23 -33 -25h-0.5h-1.5q-22 0 -33 20l-82 164l-19 -29q-8 -15 -32 -15h-312q-14 0 -25 12t-11 27.5t11 27.5t25 12h291l43 67q6 11 32 11v0q22 0 32 -19l74 -148l87 242q8 23 34 23v0q29 0 35 -16l59 -160h93q14 0 25 -12t11 -27.5
t-11 -27.5t-25 -12z" />
    <glyph glyph-name="shujutongji-xiazai" unicode="&#xe80e;"
d="M866 -44h-708q-59 0 -100.5 40t-41.5 96v170q0 14 10.5 24t24.5 10h71q15 0 25.5 -10t10.5 -24v-102q0 -28 20.5 -48t50.5 -20h566q30 0 50.5 20t20.5 48v102q0 14 10.5 24t25.5 10h71q14 0 24.5 -10t10.5 -24v-170q0 -56 -41.5 -96t-100.5 -40zM224 624q11 10 26 10
t26 -10l165 -159v313q0 14 10.5 24t24.5 10h71q15 0 25.5 -10t10.5 -24v-313l165 159q11 10 26 10t26 -10l52 -50q10 -10 10 -25t-10 -25l-293 -281q-1 -1 -7 -4.5t-17.5 -7t-22 -3.5t-22 3.5t-18 7t-7.5 4.5l-293 281q-11 10 -11 25t11 25z" />
    <glyph glyph-name="renminbi" unicode="&#xe80f;"
d="M873 876l-264 -448h208v-100h-243v-136h243v-101h-243v-199h-124v199h-252v101h252v136h-252v100h215l-262 448h141q185 -337 223 -424h2q16 42 74 148l148 276h134z" />
    <glyph glyph-name="weixinzhifu" unicode="&#xe810;"
d="M441 418q-2 -2 -6 -4.5t-17 -2t-29 10.5l-78 56q-1 1 -3.5 2.5t-9 4.5t-10.5 -1q-2 -1 -3.5 -2t-2 -3t-0.5 -4t0.5 -4.5t0.5 -4.5t1.5 -4.5t2 -4l1.5 -4.5t2 -4l74 -154q6 -17 21 -17q16 0 500 290q49 -78 49 -166q0 -96 -56.5 -178t-153.5 -130t-212 -48q-79 0 -153 25
q-9 -2 -33.5 -15t-46.5 -26.5t-24 -14.5l-5.5 -2t-7.5 -2.5t-6.5 -0.5t-6.5 3q-3 3 -3 9t1 10l2 4q12 34 18 60q3 16 2 28q-74 50 -116.5 122.5t-42.5 155.5q0 97 56.5 179t153.5 129.5t212 47.5q105 0 195.5 -40.5t148.5 -109.5z" />
    <glyph glyph-name="fufei" unicode="&#xe811;"
d="M662 445h64v21h-58q-2 -9 -6 -21zM806 499h-61v-18h61v18zM585 445h56q4 8 7 21h-56zM670 481h56v18h-54q-1 -3 -1.5 -9t-0.5 -9zM0 640v-512h1024v512h-1024zM249 228q3 19 3 42v114q0 20 1 41q-17 -29 -38 -53q-1 1 -2 2.5l-1 1.5q-5 8 -12 15q42 45 68 104
q13 29 15 44l25 -8q-3 -5 -9 -19q-9 -24 -26 -55v-188q0 -21 2 -41h-26zM315 393l18 12q32 -35 57 -77l-19 -15q-23 44 -56 80zM507 434q-14 1 -32 1h-17v-170q0 -17 -7.5 -22.5t-29.5 -5.5q-19 0 -42 2q-2 12 -7 23q28 -4 47 -4q11 0 14 1.5t3 7.5v168h-107q-23 0 -37 -2
v24q14 -2 36 -2h108v40q0 26 -2 39h26q-2 -17 -2 -39v-40h17q19 0 32 2v-23zM707 337q-3 -44 -19 -62q-20 -24 -67 -36q-24 -6 -63 -10q-3 11 -11 21q68 1 104 21q19 10 26.5 25.5t7.5 44.5q0 8 -1 14h24q-1 -7 -1 -18zM838 226q-66 28 -130 47l9 18l67 -23q10 -3 36 -12
q8 -4 26 -10zM843 428q-4 -22 -8 -27q-5 -6 -17 -6q-10 0 -23 3q-2 11 -4 18q13 -5 22 -5q5 0 7 2.5t3 15.5h-78v-13q0 -12 2 -20h-23q2 7 2 20v13h-72q-16 -25 -51 -41h24h138q26 0 39 1q-2 -10 -2 -33v-36q0 -28 2 -38h-26q2 17 2 38v50h-168v-50q0 -23 2 -38h-27
q3 14 3 38v34q0 21 -1 29q-18 -8 -36 -13q-5 11 -12 18q67 14 90 41h-44q-18 0 -31 -1q13 26 19 54q11 -1 31 -1h45q1 10 1 18h-59q-22 0 -34 -2v20q11 -1 34 -1h60q0 11 -2 23h23q-1 -8 -2 -23h54v3q0 11 -2 20h23q-2 -9 -2 -21v-2h50q23 0 32 1q-1 -10 -1 -22v-11
q0 -14 1 -19q-15 1 -33 1h-49v-21h68q25 0 33 1q0 -2 -3 -18z" />
    <glyph glyph-name="huafeizhifu" unicode="&#xe814;"
d="M428 118q0 31 7 62h-273v581h458v-384q29 9 58 11v402q0 36 -25.5 62t-60.5 26h-401q-36 0 -61 -26t-25 -62v-756q0 -36 25 -61.5t61 -25.5h297q-60 75 -60 171zM277 834h229v-29h-229v29zM695 346q-93 0 -159 -67t-66 -161t66 -161t159 -67t158.5 67t65.5 161t-65.5 161
t-158.5 67zM796.5 26q-5.5 -4 -14.5 -4h-61v-18q0 -8 -6.5 -15.5t-16.5 -6.5q-11 0 -18 5t-8 17v18h-59q-9 0 -14.5 5t-4.5 12q0 8 5.5 13t13.5 5h59v31h-59q-9 0 -14 5t-5 12t5.5 13.5t13.5 6.5h59l1 18q-15 16 -29 30l-20 24l-14 12q-4 5 -7.5 14.5t3.5 19.5q8 8 19.5 4.5
t18.5 -10.5q3 -4 12 -13l18 -19l24 -24q17 17 27 26q9 9 21 19q10 10 15 13q7 7 17 7t16 -8q11 -13 -9 -31q-5 -4 -15.5 -15t-21.5 -22q-12 -13 -27 -28v-16h57q12 0 18 -6t6 -13q0 -8 -5.5 -13.5t-17.5 -5.5h-57l-1 -31h56q25 0 25 -18q0 -9 -5.5 -13zM797 26z" />
    <glyph glyph-name="shixiao" unicode="&#xe817;"
d="M610 896h-590l-10 -10l1014 -1014v610zM770 575q7 -11 17 -20l22 -23q5 13 8 35l16 -3q-3 -18 -11 -44l14 -14q14 -14 20 -18l-13 -13q-6 8 -17 19l-50 50q-10 10 -20 17zM774 534l7 -16q-35 -15 -73 -18q1 8 0 18q19 0 35 4t31 12zM594 457q-35 83 -5 151
q-31 -15 -63 -16q-42 0 -87 19q4 11 4 20q30 -15 55 -19q47 -8 85 12l-50 50q-10 10 -22 21l13 13q8 -10 20 -22l53 -53q18 13 39 33l-40 40q-25 -6 -53 -6q0 8 -3 18q37 -2 71 10q20 7 29 14l10 -18q-6 -1 -21 -7q-3 -1 -15 -6l34 -34l9 10q16 15 22 24l15 -15
q-7 -5 -34 -31l41 -41q14 -14 23 -20l-14 -14q-8 10 -20 22l-41 42q-22 -21 -40 -33l57 -57q13 -13 23 -20l-14 -14q-8 10 -21 23l-51 51q-10 -25 -11 -52q0 -46 23 -91q-11 -1 -21 -4zM625 423q3 10 2 18q34 -5 64 -2q15 2 29 6q2 22 2 46h16q0 -24 -1 -37v-4q21 8 38 19
l7 -17q-3 -1 -13 -5q-20 -10 -33 -14q-3 -31 -6 -49l-19 -1q5 23 7 45q-43 -11 -93 -5zM918 383q-7 9 -15 17q-26 -22 -47 -33q-23 -13 -52 -20q-3 -14 -3 -31q1 -24 9 -51q-11 0 -20 -4q-9 47 -3 83q-41 -5 -92 10q3 9 2 19q50 -18 94 -11q7 30 27 64q-11 -3 -26 -6
q3 8 3 15l-9 1q10 30 14 59l15 -4q-5 -29 -11 -51q31 6 69 30q22 14 31 23l11 -17q-6 -2 -26 -16l-15 -9l38 -37q11 -11 19 -17zM841 435q-23 -36 -33 -70q21 6 42 17q16 9 33 23l8 7l-31 31q-13 -6 -19 -8z" />
    <glyph glyph-name="daizhifu" unicode="&#xe818;"
d="M711 504l-70 70q-12 -34 -8 -74q40 -5 78 4zM607 896h-588l-10 -9l1010 -1010v607zM438 863q49 -12 81 -2l3 -18q-3 0 -16 -1q-12 -1 -23 -1q-24 0 -47 4q2 9 2 18zM339 692l-14 14q13 10 24 22l45 45q13 13 22 21q-17 -3 -38 -1q3 10 4 18q24 -4 51.5 -1.5t43.5 10.5
l5 -18q-7 -1 -14 -3q-9 -2 -29 -5l-78 -78q-16 -16 -22 -24zM427 720l16 -2q1 -29 -2 -62l-18 2q5 32 4 62zM444 596q-7 4 -18 15q-9 8 -17 18q6 8 10 16q11 -16 19 -23q6 -7 8.5 -8t5.5 2l53 52l-55 55q-11 11 -20 18l13 13q7 -9 18 -20l55 -55l22 23l-60 59q-10 11 -19 18
l13 12q6 -8 17 -19l32 -32l25 25l-26 26q-11 10 -18 16l12 13q6 -8 17 -19l25 -25l8 7q8 8 14 17l14 -14q-7 -6 -16 -15l-8 -7l29 -29q10 -11 19 -17l-13 -12q-5 7 -16 18l-29 29l-25 -25l35 -36q12 -11 21 -18l-13 -13q-7 10 -18 21l-8 7l-22 -22l3 -4q12 -11 21 -18
l-13 -13q-7 9 -18 21l-4 3l-54 -54q-10 -10 -19 -6zM662 374q-35 57 -43 111q-58 10 -112 45q4 8 6 18q51 -36 104 -45q-1 9 -1 18q0 13 2 27q2 17 10 39l-2 2q-12 12 -22 20l13 13q7 -9 20 -22l39 -40l31 31l-54 54q-12 12 -21 19l14 13q6 -9 18 -21l54 -54l12 12
q9 9 15 18l15 -15q-7 -6 -18 -16l-11 -11l57 -57q12 -12 21 -19l-14 -14q-7 10 -18 21l-58 57l-30 -30l26 -26q12 -12 17 -16v-16q-6 -1 -16 -3q-38 -8 -80 -4q10 -50 46 -103q-12 -2 -20 -6zM727 305l-15 14q12 10 25 22l63 64q12 12 24 22q-26 -6 -51 -8q1 1 1 2v2
q2 7 1 15q49 2 97 20q23 9 33 16l9 -18q-4 -1 -16 -6q-18 -8 -45 -16l-105 -105q-11 -12 -21 -24zM841 375l17 -3q-2 -38 -11 -76l-19 3q12 38 13 76zM965 320q11 -10 19 -17l-13 -13q-7 9 -17 19l-9 10l-96 -96q-9 -9 -16.5 -8t-19.5 14q-10 10 -22 24q6 8 9 17
q13 -18 24 -29q9 -9 14 -4l94 94l-59 60q-13 13 -22 19l13 13q7 -8 19 -21l60 -60l22 22q15 14 21 23l15 -14q-11 -9 -23 -21l-22 -22z" />
    <glyph glyph-name="kandianbo-sousuo" unicode="&#xe829;"
d="M713 676q-67 67 -157 91t-179.5 0t-156.5 -91t-91 -156.5t0 -179.5t91 -157q48 -48 111.5 -75t134.5 -27t134.5 27t112 75t75.5 112t27 135t-27 134.5t-75 111.5v0v0zM144 107q-64 63 -99 146.5t-35 176.5t36 177.5t97 145.5t145.5 97t177.5 36t177.5 -36t145.5 -97
t97 -145.5t36 -177.5t-35 -176.5t-98 -146.5t-146.5 -98t-176.5 -35t-176 35t-146 98v0v0zM996 -100q-18 -18 -44 -18t-44 18l-88 88q-19 19 -19 44.5t18.5 44t44 18.5t44.5 -19l88 -88q18 -18 18 -44t-18 -44v0z" />
    <glyph glyph-name="wusousuojieguo" unicode="&#xe82a;"
d="M999 -53l-200 201q-1 1 -2.5 2t-2.5 1q106 124 106 287q0 90 -35 172t-94 141.5t-141 94.5t-172.5 35t-172.5 -35t-141 -94.5t-94.5 -141.5t-35.5 -172q0 -56 15 -113q18 27 40 49q8 8 19 18q-3 25 -3 46q0 101 50 187t135.5 135.5t187 49.5t187 -49.5t135.5 -135.5
t50 -187q0 -119 -69 -215t-178 -135q-11 -44 -33 -83q110 24 196 97l1 -2t2 -2l200 -201q10 -10 25 -10t25.5 10.5t10.5 25t-11 24.5zM476.5 349q-79.5 79 -191.5 79t-191 -79t-79 -191t79.5 -191t190.5 -79v0q112 0 191.5 79t79.5 191t-79.5 191zM426.5 17.5
q-58.5 -58.5 -141 -58.5t-141 58.5t-58.5 141t58.5 141t141 58.5t141 -58.5t58.5 -141t-58.5 -141zM336 158l74 74q10 11 10 25.5t-10.5 25t-25 10.5t-24.5 -11l-75 -74l-74 74q-10 11 -24.5 11t-25 -10.5t-10.5 -25t10 -25.5l74 -74l-74 -74q-10 -10 -10 -25t10.5 -25
t24.5 -10v0v0q15 0 25 10l74 74l75 -74q10 -10 25 -10v0v0q14 0 24.5 10t10.5 25t-10 25z" />
    <glyph glyph-name="zhifuchenggong" unicode="&#xe82b;"
d="M512 882q-101 0 -193.5 -39.5t-159 -106t-106 -159t-39.5 -193.5t39.5 -193.5t106 -159t159 -106t193.5 -39.5t193.5 39.5t159 106t106 159t39.5 193.5t-39.5 193.5t-106 159t-159 106t-193.5 39.5zM812 523l-345 -352q-2 -3 -4 -5q-10 -10 -24.5 -10t-24.5 10l-171 174
q-10 10 -10 24.5t10 25t24.5 10.5t24.5 -10l146 -149l325 332q10 10 24.5 10t24.5 -10t10 -24.5t-10 -25.5z" />
    <glyph glyph-name="zhifushibai" unicode="&#xe82c;"
d="M512 882q-101 0 -193.5 -39.5t-159 -106t-106 -159t-39.5 -193.5t39.5 -193.5t106 -159t159 -106t193.5 -39.5t193.5 39.5t159 106t106 159t39.5 193.5t-39.5 193.5t-106 159t-159 106t-193.5 39.5zM487 657h57q25 0 23 -25l-13 -338q0 -7 -5 -12t-12 -5h-42q-7 0 -12 5
t-6 12l-13 338q-1 25 23 25zM516 103q-24 0 -41 17t-17 41t17 41t41 17t41 -17t17 -41t-17 -41t-41 -17z" />
    <glyph glyph-name="xiajia" unicode="&#xe82d;"
d="M933 47h-842q-35 0 -59.5 25t-24.5 60v210l278 379h463l269 -379v-210q0 -35 -24.5 -60t-59.5 -25zM722 678h-412l-238 -335l172 -2l92 -126h362l86 126l174 2zM391 426l103 3v165q0 18 11 30.5t28 12.5t27 -12.5t10 -30.5v-165l102 -3l-139 -160z" />
    <glyph glyph-name="yixiajia" unicode="&#xe82e;"
d="M879 337l39 -39l44 44l-39 39zM614 896h-585l-10 -9l1005 -1005v604zM822 487q7 -9 18 -20l12 -12q8 6 17 15q1 1 5 6l12 -12q-5 -4 -11 -9.5t-12 -10.5l20 -21q9 -8 16 -14q-3 -2 -15 -12q-33 -30 -46 -34q-10 -2 -22 10q-8 8 -15 16q5 6 9 14q7 -11 16 -20q7 -7 18 1
q13 8 32 26l-25 26q-17 -12 -38 -18q-24 -6 -55 1q2 8 1 16q46 -12 81 11l-11 12q-10 10 -19 16zM529 655q-13 15 -19 20v1l-95 94l-53 -54q-9 -9 -6 -15q4 -11 49 -56q33 -33 44 -42t19 -7q11 3 34 25q2 -9 8 -17q-31 -25 -43 -27q-10 -1 -23.5 9.5t-49.5 45.5
q-54 54 -58 70q-3 10 10 23l83 83q13 13 19 21l14 -14q-9 -7 -21 -20l-14 -14l101 -101l49 48l-97 98q-13 13 -23 20l14 14q7 -9 21 -23l88 -88q13 -13 23 -21q-8 -6 -19 -17l-37 -37q-13 -13 -18 -19zM594 468q-14 -14 -21 -23l-15 15q9 7 23 21l122 121l-49 50
q-12 12 -23 20l13 14q8 -10 21 -23l120 -120q12 -12 23 -21l-14 -13q-8 11 -20 22l-59 59l-21 -22q11 -33 14 -43q9 -31 14 -60l-19 -5q-3 31 -13 66q-2 6 -9 29zM890 238q-7 9 -20 22l-46 46q1 -56 34 -112q-10 -1 -19 -4q-14 26 -21 53q-9 35 -6 67q-15 -15 -18 -19
l-15 -15q-13 -13 -19 -21l-14 15q10 6 21 18l15 15q6 5 19 18q-52 -5 -116 24q2 9 2 19q61 -32 110 -31l-44 44q-13 13 -22 20l12 12q7 -8 20 -21l52 -52l5 5q7 7 12 14l14 -13q-5 -4 -14 -12l-5 -6l53 -54q14 -13 22 -20zM969 327l-36 -36q-9 -9 -14 -15q-6 7 -15 16
l-32 32q-9 9 -16 15q7 5 14 13l37 37q5 5 15 16q5 -8 14 -17l33 -32q9 -9 16 -15q-7 -5 -16 -14z" />
    <glyph glyph-name="yigoumai" unicode="&#xe82f;"
d="M614 896h-585l-10 -9l1005 -1005v604zM837 370l-17 -4q-9 31 -25 61l18 3q16 -32 24 -60zM408 632q-53 54 -57 70q-3 10 10 23l82 83q14 13 19 21l15 -14q-9 -7 -22 -20l-14 -14l102 -101l49 48l-97 98q-14 13 -23 20l14 14q7 -9 20 -23l89 -88q13 -13 22 -21
q-7 -6 -18 -17l-38 -37q-12 -13 -17 -19q-14 15 -19 20l-1 1l-94 94l-54 -54q-8 -9 -6 -15q4 -11 50 -56q33 -33 44 -42t18 -7q11 3 34 25q3 -9 9 -17q-31 -25 -44 -27q-10 -1 -23.5 9.5t-49.5 45.5zM505 522q1 9 0 18q32 -6 52 0q21 8 54 41l32 32q16 16 23 25l13 -13
q-9 -7 -25 -22l-32 -33q-38 -38 -66 -46q-21 -6 -51 -2zM581 472l-18 3q8 23 12 48l15 -3q-3 -21 -9 -48zM597 522q7 5 18 16l89 89l-36 35l-89 -89q-9 -9 -16 -18l-12 13q8 6 17 16l83 83q10 10 17 18q7 -9 15 -17l28 -28q9 -9 15 -13q-7 -6 -18 -17l-82 -82
q-11 -11 -17 -19zM668 476q5 -3 18 -11q9 18 15 36l13 -5q-11 -32 -30 -67l-15 5q6 10 11 18l-2 1q-15 9 -29 20q-11 7 -31 20l9 13q8 -5 18 0q15 5 45 24q12 8 23 16l10 -15q-4 -2 -39 -22q-14 -8 -37 -18q5 -3 21 -15zM655 388q-9 1 -23 15q-6 6 -20 22q5 6 10 16
q11 -17 23 -28q9 -10 16 -7q28 11 120 101l-59 59q-25 -10 -52 -12q1 7 -1 16q32 2 65 18q18 8 27 16l10 -16q-1 0 -13 -6q-11 -6 -21 -10l50 -51q10 -10 17 -16q-6 -4 -15 -14q-68 -65 -103 -90q-21 -14 -31 -13zM846 185q-13 49 -36 103l16 4q23 -52 38 -103zM897 267
q15 -14 22 -19l-14 -14q-8 10 -19 22l-52 52q-35 -17 -78 -3q-27 9 -63 33q4 10 3 20q38 -28 72 -38q30 -9 53 1l-58 57q-12 13 -21 19l14 14q6 -8 19 -21l60 -61q23 15 53 45q11 11 16 19l15 -15q-8 -6 -19 -16q-25 -25 -52 -45zM838 441l17 2q13 -27 21 -58l-17 -4
q-7 31 -21 60zM998 333q-3 -1 -13 -5q-21 -11 -47 -17q-2 10 -7 17q22 4 46 15l-116 116q-13 13 -22 19l14 14q6 -8 19 -21l108 -108q12 -12 18 -16v-14z" />
    <glyph glyph-name="wodedingdan" unicode="&#xe830;"
d="M952 893h-880q-29 0 -49.5 -20.5t-20.5 -49.5v-878q0 -29 20.5 -49.5t49.5 -20.5h880q29 0 49.5 20.5t20.5 49.5v878q0 29 -20.5 49.5t-49.5 20.5zM961 5q0 -29 -20 -49.5t-49 -20.5h-760q-29 0 -49 20.5t-20 49.5v758q0 29 20 49.5t49 20.5h760q29 0 49 -20.5t20 -49.5
v-758zM252 683q-25 0 -42.5 -18t-17.5 -43t17.5 -42.5t42.5 -17.5t43 17.5t18 42.5t-18 43t-43 18zM252 477q-25 0 -42.5 -17.5t-17.5 -42.5t17.5 -42.5t42.5 -17.5t43 17.5t18 42.5t-18 42.5t-43 17.5zM252 258q-25 0 -42.5 -17.5t-17.5 -42.5t17.5 -42.5t42.5 -17.5
t43 17.5t18 42.5t-18 42.5t-43 17.5zM817 653h-386q-12 0 -21 -9t-9 -21.5t9 -21.5t21 -9h386q13 0 21.5 9t8.5 21.5t-8.5 21.5t-21.5 9zM817 447h-386q-12 0 -21 -8.5t-9 -21t9 -21.5t21 -9h386q13 0 21.5 9t8.5 21.5t-8.5 21t-21.5 8.5zM817 228h-386q-12 0 -21 -8.5
t-9 -21t9 -21.5t21 -9h386q13 0 21.5 9t8.5 21.5t-8.5 21t-21.5 8.5z" />
    <glyph glyph-name="wode-yixuanze" unicode="&#xe831;"
d="M512 887q-102 0 -195 -40t-160.5 -107.5t-107.5 -160.5t-40 -195t40 -195t107.5 -160.5t160.5 -107.5t195 -40t195 40t160.5 107.5t107.5 160.5t40 195t-40 195t-107.5 160.5t-160.5 107.5t-195 40zM783 513l-340 -340q-5 -5 -12.5 -4.5t-13.5 5.5l-23 23v0l-152 152
q-6 6 -6 14t6 14l42 42q5 5 13.5 5t13.5 -5l120 -120l283 283q5 5 12.5 4.5t13.5 -6.5l41 -41q6 -6 6.5 -13.5t-4.5 -12.5z" />
    <glyph glyph-name="wode-weixuanze" unicode="&#xe832;"
d="M740 580q-6 6 -13.5 6.5t-12.5 -4.5l-283 -283l-120 120q-5 5 -13.5 5t-13.5 -5l-42 -42q-6 -6 -6 -14t6 -14l152 -152v0l23 -23q6 -5 13.5 -5.5t12.5 4.5l340 340q5 5 4.5 12.5t-6.5 13.5zM512 887q-102 0 -195 -40t-160.5 -107.5t-107.5 -160.5t-40 -195t40 -195
t107.5 -160.5t160.5 -107.5t195 -40t195 40t160.5 107.5t107.5 160.5t40 195t-40 195t-107.5 160.5t-160.5 107.5t-195 40zM512 -56q-89 0 -170.5 35t-140.5 94t-94 140.5t-35 170.5t35 170.5t94 140.5t140.5 94t170.5 35t170.5 -35t140.5 -94t94 -140.5t35 -170.5
t-35 -170.5t-94 -140.5t-140.5 -94t-170.5 -35z" />
    <glyph glyph-name="dianshi" unicode="&#xe64f;"
d="M923 654h-316l91 95q13 14 13 34t-13.5 34t-32 14t-31.5 -14l-119 -125l-163 173q-13 14 -32 14t-32.5 -14t-13.5 -34t14 -34l136 -143h-316q-38 0 -64.5 -28t-26.5 -68v-573q0 -40 26.5 -68t64.5 -28h815q38 0 64.5 28t26.5 68v573q0 40 -26.5 68t-64.5 28zM833 32
q0 -19 -13.5 -33t-32.5 -14h-634q-19 0 -32 14t-13 33v478q0 20 13 34t32 14h634q19 0 32.5 -14t13.5 -34v-478zM923 161q-19 0 -32 14t-13 34t13 34t32 14t32.5 -14t13.5 -34t-13.5 -34t-32.5 -14zM923 352q-19 0 -32 14t-13 34t13 34t32 14t32.5 -14t13.5 -34t-13.5 -34
t-32.5 -14z" />
    <glyph glyph-name="daizhifu1" unicode="&#xe839;"
d="M508 383q-3 10 -23.5 39.5t-45 71t-36.5 79.5l-84 -1l114 -189l-90 -3v-76l127 3v-58h-112l-15 -65h131l2 -78h75l-1 78h113l2 63l-120 2l1 58l120 -2v76l-82 2l113 189h-76zM980 383q0 93 -39.5 181.5t-104 152t-151 102t-177.5 38.5q-94 0 -181 -38.5t-151 -102.5
t-102 -151.5t-38 -181.5q0 -107 50 -205t135 -166l-34 -104l94 63q108 -63 227 -63q117 0 225 64l96 -64l-35 107q85 68 135.5 165.5t50.5 202.5zM220 645q53 60 128 93.5t160 33.5q103 0 192 -51.5t142 -141.5t53 -196q0 -103 -53 -193t-142.5 -143.5t-191.5 -53.5
q-106 0 -195.5 53.5t-140.5 143t-51 193.5q0 152 99 262zM961 686q34 18 26 72q-9 58 -53 87q-54 34 -124 -7v0q69 -73 151 -152zM82 686q37 35 74.5 73t56.5 59l20 20q-83 49 -140 -6q-39 -39 -38 -92q0 -40 27 -54z" />
    <glyph glyph-name="jiciqia" unicode="&#xe83a;"
d="M871 780h-718q-60 0 -103.5 -41t-43.5 -99v-512q0 -58 43.5 -99t103.5 -41h718q60 0 103.5 41t43.5 99v512q0 58 -43.5 99t-103.5 41zM153 691h718q22 0 37.5 -15t15.5 -36v-74h-824v74q0 21 15.5 36t37.5 15zM871 77h-718q-22 0 -37.5 15t-15.5 36v295h824v-295
q0 -21 -15.5 -36t-37.5 -15zM827 204h-210q-16 0 -27.5 -11.5t-11.5 -27t11.5 -27t27.5 -11.5h210q16 0 27 11.5t11 27t-11 27t-27 11.5z" />
    <glyph glyph-name="jiaoyiguanbi" unicode="&#xe83b;"
d="M512 888q-103 0 -196 -40t-160.5 -107.5t-107.5 -160.5t-40 -196q0 -129 62 -242q4 -14 16 -23.5t28 -9.5q19 0 32 13.5t13 32.5v4q-2 10 -4.5 17t-3.5 9l-2 3q-21 44 -36 98t-15 99q0 112 55.5 207t150.5 150.5t207 55.5t207 -55.5t150.5 -151t55.5 -207.5t-55.5 -207
t-150.5 -150.5t-207 -55.5q-134 0 -243 80q-13 15 -33 15q-19 0 -32.5 -13.5t-13.5 -32.5l1 -4q0 -16 9 -28t24 -16q130 -92 289 -92q102 0 195.5 40t161 107.5t107.5 160.5t40 196t-40 196t-107.5 160.5t-160.5 107.5t-196 40zM313 190l8 -9q12 -11 28.5 -11t28.5 11
l134 134l134 -134q11 -11 27.5 -11t28.5 11l9 9q11 11 11 27.5t-11 28.5l-135 134l134 133q11 12 11 28.5t-11 28.5l-9 8q-11 12 -27.5 12t-28.5 -12l-133 -133l-134 133q-11 12 -27.5 12t-28.5 -12l-9 -8q-11 -12 -11 -28.5t11 -28.5l134 -133l-134 -134q-12 -12 -12 -28.5
t12 -27.5z" />
    <glyph glyph-name="kandianbo" unicode="&#xe83c;"
d="M789 828h-554q-69 0 -118 -49t-49 -118v-554q0 -69 49 -118t118 -49h554q69 0 118 49t49 118v554q0 69 -49 118t-118 49zM855 107q0 -27 -19.5 -46.5t-46.5 -19.5h-554q-27 0 -46.5 19.5t-19.5 46.5v554q0 27 19.5 46.5t46.5 19.5h554q27 0 46.5 -19.5t19.5 -46.5v-554z
M386 208l304 176l-305 176z" />
    <glyph glyph-name="jiaoyijieguodaiqueren" unicode="&#xe83d;"
d="M512 888q-103 0 -196 -40t-160.5 -107.5t-107.5 -160.5t-40 -196q0 -129 62 -242q4 -14 16 -23.5t28 -9.5q19 0 32 13.5t13 32.5v4q-2 10 -4.5 17t-3.5 9l-2 3q-21 44 -36 98t-15 99q0 112 55.5 207t150.5 150.5t207 55.5t207 -55.5t150.5 -151t55.5 -207.5t-55.5 -207
t-150.5 -150.5t-207 -55.5q-134 0 -243 80q-13 15 -33 15q-19 0 -32.5 -13.5t-13.5 -32.5l1 -4q0 -16 9 -28t24 -16q130 -92 289 -92q102 0 195.5 40t161 107.5t107.5 160.5t40 196t-40 196t-107.5 160.5t-160.5 107.5t-196 40zM304 161q11 -12 27 -13t28 10l21 19v-1
l197 157q22 10 22 28v280q0 12 -12.5 21.5t-24.5 9.5h-16q-12 0 -25 -9.5t-13 -21.5v-260l-150 -120q-5 -3 -9 -6l-9 -9l-10 -7l1 -1l-25 -22q-12 -11 -12.5 -27t10.5 -28z" />
    <glyph glyph-name="jiaoyichenggong" unicode="&#xe83e;"
d="M319 416l147 -151l240 243q13 14 31.5 14t31.5 -13.5t12.5 -32t-13.5 -31.5l-262 -268q-4 -8 -7 -11q-13 -14 -34 -12q-19 0 -32 13q-2 3 -6 10l-172 174q-13 14 -13 33t13 32t31.5 13.5t32.5 -13.5zM512 -119q-155 0 -282 91q-15 4 -24 16.5t-9 27.5v5q0 18 13 31.5
t31 13.5q20 0 33 -15q106 -79 237 -79q110 0 203 55t147 150t54 207t-54 207.5t-147 150.5t-202.5 55t-202.5 -55t-147 -150t-54 -207q0 -45 14.5 -99t34.5 -98q7 -7 10 -29v-4q0 -19 -13 -32.5t-31 -13.5q-15 0 -27 9.5t-16 24.5q-60 112 -60 241q0 102 39 195.5t104.5 161
t157 107t191.5 39.5t191.5 -39.5t157 -107t104.5 -161t39 -195.5t-39 -195.5t-105 -161t-157 -107t-191 -39.5z" />
    <glyph glyph-name="jiaobiao" unicode="&#xe83f;"
d="M1017 -16l-4 788q0 50 -36 86t-87 36l-779 -4z" />
    <glyph glyph-name="xuanzeduigou" unicode="&#xe840;"
d="M1002 625l-614 -606q-10 -9 -23.5 -8t-23.5 11l-42 41v0l-275 271q-10 11 -10 25.5t10 24.5l75 74q11 10 25.5 10t24.5 -10l217 -213l511 504q9 9 23 8t24 -11l75 -74q10 -11 11 -24.5t-8 -22.5z" />
    <glyph glyph-name="konghezi" unicode="&#xe841;"
d="M974 -55h-924q-19 0 -32.5 13.5t-13.5 32.5v347l118 449q4 15 20 25.5t35 10.5h670q19 0 35.5 -10.5t19.5 -25.5l118 -449v-347q0 -19 -13.5 -32.5t-32.5 -13.5v0zM925 396l-76 321q-4 15 -20.5 25.5t-35.5 10.5h-575q-19 0 -35 -10.5t-21 -25.5l-76 -321q-6 -24 7 -41
t38 -17h179l53 -144q3 -7 11 -12.5t17 -5.5h228q10 0 18 5t10 13l53 144h178q26 0 39.5 17t7.5 41v0z" />
    <glyph glyph-name="zhuijia" unicode="&#xe844;"
d="M933 384v-253q0 -51 -20.5 -72t-71.5 -21h-658q-51 0 -71.5 21t-20.5 72v530q0 21 3.5 33.5t8.5 20t18.5 11t25 4t36.5 0.5h436v85h-491q-50 0 -86 -36t-36 -87v-616q0 -51 36 -87t86 -36h768q50 0 86 36t36 87v308h-85zM608 607q0 -16 10.5 -34t23.5 -18v0h123v-150
q0 -13 16 -23t31 -10v0q14 0 26 10t12 23v150h131q13 0 23.5 18t10.5 34q0 14 -10 25t-24 11v0h-131v139q0 13 -12 23t-26 10v0q-16 0 -31.5 -10t-15.5 -23v-139h-123q-14 0 -24 -11t-10 -25z" />
    <glyph glyph-name="fanhui" unicode="&#xe845;"
d="M664 674h-374v108q0 29 -18 38.5t-42 -5.5l-201 -129q-25 -16 -25 -38.5t25 -38.5l201 -129q24 -16 42 -6.5t18 39.5v90h356q303 0 303 -285q0 -48 -8 -87.5t-28.5 -77.5t-54 -63.5t-87.5 -41.5t-125 -16h-499h-0.5h-0.5h-0.5h-0.5q-19 0 -32 -13t-13 -31.5t13 -31.5
t32 -13l0.5 0.5l0.5 0.5l0.5 -0.5l0.5 -0.5h517q99 0 179.5 38.5t128.5 112.5t48 170v107q0 95 -48.5 165t-128 104t-179.5 34zM664 674z" />
    <glyph glyph-name="guanji" unicode="&#xe846;"
d="M695 796v-76q109 -50 167 -146.5t58 -218.5q0 -112 -54.5 -206.5t-149 -149t-206 -54.5t-204.5 54.5t-147 149t-54 206.5q0 115 64 213t164 151v77q-142 -54 -219.5 -172t-77.5 -269q0 -98 38 -186.5t101.5 -153t152 -102.5t186 -38t186 38t152 102.5t101 153t37.5 186.5
q0 151 -77 269.5t-218 171.5zM546 491q0 -17 -12.5 -29.5t-30.5 -12.5t-30.5 12.5t-12.5 29.5v362q0 18 12.5 30.5t30.5 12.5t30.5 -12.5t12.5 -30.5v-362z" />
    <glyph glyph-name="shang" unicode="&#xe847;"
d="M484 675l1.5 1t2.5 1q18 9 38.5 6t34.5 -19l443 -481q18 -20 17 -47t-20 -45.5t-45.5 -18t-44.5 20.5l-397 432l-403 -431q-18 -19 -44.5 -19.5t-45.5 18.5q-20 19 -20 47q0 26 18 45l447 477q1 0 2 1l1.5 1.5l1.5 1.5q2 2 13 9zM484 675z" />
    <glyph glyph-name="jingyin" unicode="&#xe848;" horiz-adv-x="1026"
d="M495 788l-204 -207h-207q-36 0 -60 -24t-24 -60v-224q0 -36 24 -60t60 -24h185l212 -213q16 -9 35.5 -13t40 2.5t31.5 27.5l-3 795q-17 19 -44 19t-46 -19zM504 77l-196 196h-224v224h252l168 168v-588zM1026 532l-59 49l-121 -146l-120 146l-60 -49l130 -158l-129 -157
l59 -49l120 145l120 -145l60 49l-130 157z" />
    <glyph glyph-name="xia" unicode="&#xe849;"
d="M484 60q0 -1 1.5 -2t2.5 -1q18 -9 38.5 -5.5t34.5 18.5l442 481q19 20 18 47t-20 46t-45.5 18t-44.5 -21l-397 -431l-403 430q-18 19 -44.5 19.5t-45.5 -18.5t-19 -47q0 -26 18 -45l446 -477q1 0 2 -0.5t1.5 -1t1.5 -2.5q2 -2 13 -8zM484 60z" />
    <glyph glyph-name="caidan" unicode="&#xe84a;"
d="M59 780h-3q-23 0 -39.5 -16.5t-16.5 -39.5v-3q0 -23 16.5 -39.5t39.5 -16.5h3q23 0 39.5 16.5t16.5 39.5v3q0 23 -16.5 39.5t-39.5 16.5zM982 775h-745q-18 0 -30.5 -12.5t-12.5 -29.5v-11q0 -18 12.5 -30.5t30.5 -12.5h745q18 0 30 12.5t12 30.5v11q0 17 -12 29.5
t-30 12.5zM59 428h-3q-23 0 -39.5 -16.5t-16.5 -39.5v-3q0 -23 16.5 -39.5t39.5 -16.5h3q23 0 39.5 16.5t16.5 39.5v3q0 23 -16.5 39.5t-39.5 16.5zM982 423h-745q-18 0 -30.5 -12.5t-12.5 -29.5v-11q0 -18 12.5 -30t30.5 -12h745q18 0 30 12t12 30v11q0 17 -12 29.5
t-30 12.5zM59 103h-3q-23 0 -39.5 -16.5t-16.5 -39.5v-3q0 -23 16.5 -39.5t39.5 -16.5h3q23 0 39.5 16.5t16.5 39.5v3q0 23 -16.5 39.5t-39.5 16.5zM982 98h-745q-18 0 -30.5 -12.5t-12.5 -29.5v-11q0 -18 12.5 -30.5t30.5 -12.5h745q18 0 30 12.5t12 30.5v11q0 17 -12 29.5
t-30 12.5z" />
    <glyph glyph-name="yinliangjian" unicode="&#xe84b;"
d="M583 857l-241 -244h-243q-42 0 -70.5 -28.5t-28.5 -70.5v-263q0 -42 28.5 -70.5t70.5 -28.5h217l250 -250q19 -12 41.5 -16.5t47 3.5t37.5 32l-4 936q-20 22 -51.5 22t-53.5 -22zM593 20l-231 231h-263v263h296l198 198v-692v0zM833 596q89 -83 89 -214q0 -63 -25.5 -120
t-69.5 -97l65 -72q61 55 95 130.5t34 162.5q0 82 -32 154.5t-90 128.5z" />
    <glyph glyph-name="yinliangjia" unicode="&#xe84c;"
d="M454 756l-187 -188h-188q-33 0 -55 -22t-22 -55v-204q0 -32 22 -54t55 -22h168l194 -194q14 -9 31.5 -12.5t36.5 2.5t29 25l-3 724q-15 17 -39.5 17t-41.5 -17zM461 109l-178 178h-204v204h229l153 153v-535zM647 555q69 -65 69 -166q0 -49 -19.5 -93t-54.5 -75l51 -56
q100 91 100 227q0 129 -95 219zM859 774l-54 -56q67 -65 104 -149t37 -180q0 -99 -40 -186.5t-111 -152.5l51 -56q82 74 129 177.5t47 217.5q0 111 -43.5 211t-119.5 174z" />
    <glyph glyph-name="qiehuan1" unicode="&#xe84d;" horiz-adv-x="1026"
d="M982 246h-939q-5 0 -9 -1q-15 -4 -24 -15q-9 -8 -10 -21.5t6 -25.5q7 -10 18 -16l190 -185q12 -12 29.5 -12t30 12t12.5 29t-12 29l-128 123h836q18 0 30.5 12t12.5 29t-12.5 29.5t-30.5 12.5v0zM43 521h939q5 0 9 1q15 3 25 14q11 10 10.5 27t-12.5 29l-201 193
q-13 12 -30.5 12t-30 -12t-12.5 -29t12 -29l128 -123h-837q-18 0 -30.5 -12t-12.5 -29t12.5 -29.5t30.5 -12.5z" />
    <glyph glyph-name="you" unicode="&#xe84e;"
d="M819 359l1 1.5l1 1.5q10 18 6.5 38.5t-19.5 35.5l-480 441q-20 19 -47 18t-45.5 -20t-18 -45.5t20.5 -44.5l431 -396l-429 -403q-20 -18 -20.5 -44.5t18.5 -45.5t47 -19q26 0 45 18l476 446q1 0 1.5 1.5t1 1.5t2.5 2t8 13zM819 359z" />
    <glyph glyph-name="zuo" unicode="&#xe84f;"
d="M201 357l-1 1.5t-1 2.5q-10 17 -6.5 38t19.5 35l481 442q19 18 46 17.5t46 -19.5t18 -45.5t-20 -44.5l-432 -397l430 -403q19 -18 19.5 -44.5t-17.5 -45.5q-20 -19 -47 -19t-46 18l-476 446q-1 1 -1.5 2t-1 1.5t-2.5 1.5q-2 2 -8 13zM201 357z" />
    <glyph glyph-name="zhuye" unicode="&#xe850;"
d="M1014 368l-428 465v0q-29 30 -71 30q-46 0 -77 -36l-427 -459q-9 -9 -9 -23.5t9 -23.5q10 -10 24 -10t23 10v0l422 459q12 12 29.5 12t29.5 -12l422 -459v-1q9 -8 25 -8t25.5 9.5t10.5 22.5q2 14 -8 24zM883.5 332q-12.5 0 -22 -9.5t-9.5 -21.5v-309q0 -11 -7 -17.5
t-18 -6.5h-132q-12 0 -18.5 6.5t-6.5 17.5v252q0 36 -26.5 62t-61.5 26h-145q-36 0 -62 -26t-26 -62v-252q0 -11 -7 -17.5t-18 -6.5h-126q-11 0 -18 6.5t-7 17.5v309q0 12 -9.5 21.5t-22 9.5t-22 -9.5t-9.5 -21.5v-309q0 -35 26 -61.5t62 -26.5h132q36 0 62.5 26.5
t26.5 61.5v252q0 11 6.5 18t17.5 7h139q11 0 17.5 -7t6.5 -18v-252q0 -35 26.5 -61.5t62.5 -26.5h132q36 0 62 26.5t26 61.5v309q0 12 -9.5 21.5t-22 9.5z" />
    <glyph glyph-name="daizhifudingdan" unicode="&#xe851;"
d="M381 -60h-287q-11 0 -19 7.5t-8 18.5v836q0 11 8 19t19 8h601q11 0 18.5 -8t7.5 -19v-130q0 -11 8 -19t18.5 -8t18 8t7.5 19v157q0 21 -15 36.5t-37 15.5h-654q-21 0 -36.5 -15.5t-15.5 -36.5v-890q0 -21 15.5 -36.5t36.5 -15.5h314q11 0 18.5 8t7.5 18.5t-7.5 18.5
t-18.5 8zM329 293q0 5 -3.5 9t-9.5 4h-131q-5 0 -8.5 -4t-3.5 -9v-26q0 -6 3.5 -9.5t8.5 -3.5h131q5 0 9 3.5t4 9.5v26zM185 672q-5 0 -8.5 -4t-3.5 -9v-26q0 -6 3.5 -9.5t8.5 -3.5h445q5 0 9 3.5t4 9.5v26q0 5 -4 9t-9 4h-445zM185 123q-5 0 -8.5 -4t-3.5 -9v-26
q0 -6 3.5 -9.5t8.5 -3.5h131q5 0 9 3.5t4 9.5v26q0 5 -3.5 9t-9.5 4h-131zM395 489h-210q-5 0 -8.5 -4t-3.5 -9v-27q0 -5 3.5 -9t8.5 -4h210q5 0 8.5 4t3.5 9v27q0 5 -3.5 9t-8.5 4zM708.5 489q-124.5 0 -212.5 -88.5t-88 -212.5t88 -212t212.5 -88t212.5 88t88 212
t-88 212.5t-212.5 88.5zM708.5 -60q-102.5 0 -175.5 72.5t-73 175.5t73 175.5t175.5 72.5t175.5 -72.5t73 -175.5t-73 -175.5t-175.5 -72.5zM823 176q8 0 13.5 5.5t5.5 13.5t-5.5 13.5t-13.5 5.5h-75l82 108q5 6 4 14t-7.5 12.5t-14 3.5t-12.5 -7l-91 -119l-91 119
q-5 6 -12.5 7t-14 -3.5t-7.5 -12.5t4 -14l82 -108h-75q-8 0 -13.5 -5.5t-5.5 -13.5t5.5 -13.5t13.5 -5.5h95v-43h-90q-8 0 -14 -5.5t-6 -13.5t6 -13.5t14 -5.5h90v-72q0 -8 5.5 -14t13.5 -6t14 6t6 14v72h90q8 0 14 5.5t6 13.5t-6 13.5t-14 5.5h-91v43h95z" />
    <glyph glyph-name="wodedingdan1" unicode="&#xe852;"
d="M879 826h-85v-111h-564v111h-85q-35 0 -60 -24.5t-25 -58.5v-773q0 -34 25 -58.5t60 -24.5h734q35 0 60 24.5t25 58.5v773q0 34 -25 58.5t-60 24.5v0zM230 329h451v-55h-451v55v0zM794 108h-564v55h564v-55zM794 439h-564v55h564v-55zM314 770h396q11 0 19.5 8.5
t8.5 19.5v55q0 12 -8.5 20t-19.5 8h-396q-11 0 -19.5 -8t-8.5 -20v-55q0 -11 8.5 -19.5t19.5 -8.5z" />
    <glyph glyph-name="yizhifudingdan" unicode="&#xe853;"
d="M185 672q-5 0 -8.5 -4t-3.5 -9v-26q0 -6 3.5 -9.5t8.5 -3.5h445q5 0 9 3.5t4 9.5v26q0 5 -4 9t-9 4h-445zM329 293q0 5 -3.5 9t-9.5 4h-131q-5 0 -8.5 -4t-3.5 -9v-26q0 -6 3.5 -9.5t8.5 -3.5h131q5 0 9 3.5t4 9.5v26zM381 -60h-287q-11 0 -19 7.5t-8 18.5v836q0 11 8 19
t19 8h601q11 0 18.5 -8t7.5 -19v-130q0 -11 8 -19t18.5 -8t18 8t7.5 19v157q0 21 -15 36.5t-37 15.5h-654q-21 0 -36.5 -15.5t-15.5 -36.5v-890q0 -21 15.5 -36.5t36.5 -15.5h314q11 0 18.5 8t7.5 18.5t-7.5 18.5t-18.5 8zM395 489h-210q-5 0 -8.5 -4t-3.5 -9v-27
q0 -5 3.5 -9t8.5 -4h210q5 0 8.5 4t3.5 9v27q0 5 -3.5 9t-8.5 4zM708.5 489q-124.5 0 -212.5 -88.5t-88 -212.5t88 -212t212.5 -88t212.5 88t88 212t-88 212.5t-212.5 88.5zM708.5 -60q-102.5 0 -175.5 72.5t-73 175.5t73 175.5t175.5 72.5t175.5 -72.5t73 -175.5
t-73 -175.5t-175.5 -72.5zM185 123q-5 0 -8.5 -4t-3.5 -9v-26q0 -6 3.5 -9.5t8.5 -3.5h131q5 0 9 3.5t4 9.5v26q0 5 -3.5 9t-9.5 4h-131zM882 301v0q-11 0 -18 -7l-182 -182l-95 95q-7 7 -18 7v0q-11 0 -18.5 -7.5t-7.5 -18.5v0q0 -11 8 -18l113 -113q7 -8 18 -8t19 8
l200 200q7 7 7 18v0q0 11 -7.5 18.5t-18.5 7.5z" />
    <glyph glyph-name="xiaoxidongtai" unicode="&#xe854;"
d="M512 5q-46 0 -95 8l-221 -135v224q-89 62 -139.5 152t-50.5 193q0 90 40 172t108 141.5t161.5 94.5t196.5 35t196.5 -35t161.5 -94.5t108 -141.5t40 -172t-40 -172t-108 -141t-161.5 -94t-196.5 -35zM512 827q-120 0 -222 -51t-161.5 -138.5t-59.5 -190.5q0 -94 51 -176
t138 -134l-2 -147l149 89q54 -11 107 -11q120 0 222 50.5t161.5 138t59.5 190.5t-59.5 190.5t-161.5 138.5t-222 51zM765 384q-26 0 -44.5 18.5t-18.5 44.5t18.5 44.5t44.5 18.5t44.5 -18.5t18.5 -44.5t-18.5 -44.5t-44.5 -18.5zM512 384q-26 0 -44.5 18.5t-18.5 44.5
t18.5 44.5t44.5 18.5t44.5 -18.5t18.5 -44.5t-18.5 -44.5t-44.5 -18.5zM259 384q-26 0 -44.5 18.5t-18.5 44.5t18.5 44.5t44.5 18.5t44.5 -18.5t18.5 -44.5t-18.5 -44.5t-44.5 -18.5z" />
    <glyph glyph-name="jiantou1" unicode="&#xe855;"
d="M884 541l-117 327q-4 12 -16 16q-8 4 -17.5 1.5t-14.5 -10.5l-188 -293q-5 -8 -3 -18.5t11 -15.5q6 -4 13 -4q14 0 21 11l130 202q-19 -131 -48 -242.5t-60.5 -189.5t-69.5 -141.5t-72 -102.5t-71 -68q-32 -26 -66 -43.5t-58.5 -24t-47 -11t-31.5 -2.5t-13 0
q-10 2 -18 -4.5t-9.5 -16.5t5 -18.5t16.5 -9.5t18 -1q26 0 55 5t80 26.5t98 58.5q40 31 76 72t77 108.5t75 150t64.5 200t50.5 255.5l83 -234q6 -17 24 -17q4 0 8 2q10 3 14.5 12.5t0.5 19.5z" />
    <glyph glyph-name="dianjifenxiangwenzi" unicode="&#xe856;"
d="M65 361h-1l-1 -0.5t-1 -1.5q0 -2 2 -4q6 -7 10 -8h2t1 1v2q-5 10 -12 11zM57 375v1q5 6 6 12q0 4 -5 6q-3 1 -9 1h-9q1 6 1 12q1 0 2 1h1q6 1 7 1q7 2 9 3q1 1 1 3v0q-1 1 -2 1q-3 0 -8 -1t-8 -1q-1 0 -2 -1q0 6 -2 9q-1 3 -2 3t-2.5 -1t-1.5 -3q2 -7 2 -12v-15h-2
q-2 -1 -5 -2v0.5v0.5q-1 3 -3 3h-2q-2 -2 -2 -3t1 -3q1 -3 1 -5q2 -8 2 -12v-5v-3q0 -2 2 -2t3 2v0q4 0 9 1q13 2 18 4q2 1 2 3l-0.5 0.5l-0.5 0.5q0 1 -1 1zM48 374v0l-10 -2q-4 0 -7 -1v4q0 2 -1 8v3q1 0 5 1t8 1q4 1 6 1q7 0 8 -1q0 -5 -9 -14zM47 361q-2 1 -3 1t-1 -1
q-1 0 -1 -1q0 -2 1 -3q8 -10 12 -11q1 0 1.5 1t0.5 2v0q-1 5 -10 12zM11 360q-2 1 -3 1t-1 -1q-1 0 -1 -2q0 -1 1 -2q7 -11 11 -12q1 0 1.5 0.5t0.5 1.5q-1 6 -9 14zM42 349q-5 2 -10 8l-3 3t-2 1h-0.5h-0.5l-1 -1l-1 -2q0 -2 1 -2q3 -5 7 -8q4 -4 7 -4q1 0 1.5 0.5t1 1.5
l0.5 1v2zM161 396v1q-1 1 -2 1q-9 -3 -27 -6v2v11q5 1 7 1q6 1 10 3q1 1 1 3q0 1 -1 2h-2q-2 0 -6 -1t-9 -2v9q0 2 -2 3h-2q-2 -1 -2 -3v-5v-5q-8 -1 -15 -2q-2 -1 -4 -1q-1 -1 -1 -2q0 -3 2 -4h1q2 0 4 0.5t6 1t7 0.5v-12q-12 -2 -23 -4q-2 0 -4 -1t-2 -3q0 -3 3 -3h3
q1 0 5 1q9 1 18 3v-3q1 -10 1 -19q0 -4 -3 -9q-7 -3 -13 -3q-3 1 -3 3q0 1 2 6q1 3 2 5v3v3q-1 2 -3 2q-3 0 -4 -3v-4v-3l-1 -1.5t-1 -2.5q-2 -3 -2 -5q0 -4 3 -7q2 -2 6 -2q10 0 21 4q12 5 20 11q1 -6 4 -10q1 -2 3 -2t3 2q-2 3 -3 8q-4 10 -4 15q0 3 1 6q-1 3 -3 3
q-3 0 -4 -3q0 -6 0.5 -8.5t0.5 -5.5q-1 0 -3 -1q-4 -3 -14 -7v0q1 3 1 7q0 6 -1 15v7q22 5 28 8q1 1 1 3zM241 380q-2 2 -6 2q-5 0 -10 -2q-4 -1 -7 -2v1l-2 2h-2t-2 -1t-1 -2q2 -8 3 -17q2 -6 2 -12q0 -2 2 -2t3 3v0h1q2 0 6 1q9 4 13 6q1 2 1 3v1v1h-1l2 4l2 8q0 1 -1 3
t-3 3zM238 370q-1 -4 -3 -9q-4 -2 -9 -3q-3 -1 -5 -2q-1 2 -1 5t-1 5v6q10 4 17 4q3 0 3 -2q0 -1 -1 -4zM250 410q-1 1 -2 1q0 -1 -4 -2q-13 -5 -26 -7q3 7 3 14q0 1 -1 3q0 3 -3 3t-3 -3v-4q0 -6 -2 -15q-10 -2 -18 -2h-3q-2 -1 -2 -2v-2q0 -2 2 -3h3q5 1 10 1q3 1 5 1
q-2 -3 -4 -8q-7 -10 -16 -22q-4 -4 -7 -8q-1 -2 -1 -3q0 -2 1 -2t3 1l6 6q12 14 19 25q4 7 6 13q6 1 12 3q13 3 21 7q1 0 2 1t1 2t-2 2zM337 356h-8h-11q-9 0 -13 -1q2 12 2 27v8q6 1 13 3q4 1 6 3q1 0 2 1v1.5v0.5q0 1 -3 1q-14 -3 -18 -3v2.5t-1 1.5q-1 11 -3 17
q-2 3 -3 3t-2 -1t-1 -3q0 -1 1 -3q2 -6 3 -16v-19q0 -12 -2 -24h-7q-8 -1 -14 -1q-5 -1 -5 -3v-2q0 -2 1.5 -2h3.5q10 1 20 1q15 1 22 1q8 1 10.5 1h7.5q3 1 3 3q0 3 -4 3zM408 374q1 1 1 2v1q0 1 -2 1q-4 -3 -11 -6v3v5l8 4q1 1 1 2v1q-1 1 -2 1q-2 0 -5 -1q-1 0 -2 -1v7
q0 2 -2 3h-1q-2 -1 -2 -3v-9q-8 -3 -12 -5q-1 -1 -1 -2v-2q1 -1 2 -1h1l6 2q0 1 4 2v-9q-4 -1 -8 -3q-2 0 -4 -1t-2 -3q0 -3 3 -3h3q1 1 2 1q3 2 5 3q0 -13 -1 -16q0 -2 3 -2q1 0 1.5 1.5t1.5 3.5q1 6 1 14v1q10 5 12 9zM417 371v12q1 12 1 15q0 7 -4 8h-5q-8 -1 -13 -2
q5 6 6 12q0 3 -5 4q-1 0 -3 -1q-3 0 -7 -2q3 5 3 6q0 3 -2 3h-0.5h-0.5h-2q-1 -2 -4 -7l-1 -2q1 -4 5 -5h3q4 1 7 2q0 -1 -4 -7q-1 -2 -4 -6q-5 -1 -7 -2q-3 -2 -3 -3q1 -3 3 -4q18 8 31 8q1 0 1 -3q-1 -13 -1 -28v-14q0 -3 1 -6q-2 1 -4 2.5t-3 1.5t-1 -1v-3q5 -8 11 -8
q3 0 3 3t-1 13v14zM372 402q-3 0 -3 -3q1 -11 1 -18q0 -10 -2 -18q-1 -5 -2 -9l-2 -6q-2 -1 -2 -2q0 -2 2 -3q1 0 3 2t3 5q2 5 4 11q2 10 2 22q0 7 -1 16q0 3 -3 3zM454 378q3 5 5 7q3 5 6 9q4 7 8 15q1 1 1 2q0 3 -3 3q-2 0 -3 -2q-9 -18 -19 -31q-1 -1 -1 -2q0 -3 3 -3
q1 0 3 2zM497 391q-3 0 -8 -1l-12 -3q-4 -2 -9 -3q-4 -1 -6 -2t-2 -2.5t1 -2.5q0 -1 1.5 -1h2.5q2 1 7 3h2l-2 -2q-9 -19 -18 -29q-1 -1 -1 -3q0 -1 2 -1q1 0 2 1q2 1 4 4q9 11 15 21q3 4 4 8q1 2 1 4v0l7 2q5 2 8 2q2 0 2 -1q0 -5 -1 -13q-2 -10 -4 -17q-2 -5 -3.5 -5h-2.5
q-1 2 -3 4h-1h-2v-2v-2q2 -7 8 -7q4 0 7 6q4 8 6 18q3 10 3 17q0 3 -3 5q-1 2 -5 2zM516 398q-3 2 -10 7q-13 9 -17 12q-2 2 -4 3l-1 1q-2 0 -3 -2v-2v-1q0 -1 1 -1l3 -3l12 -9l12 -7q4 -3 6 -4l1 -1q3 0 3 3q0 1 -1 2q-1 0 -2 1v1zM542 408q1 0 3 1h4q14 2 23 4q22 3 28 6
q1 1 1 2l-1 1q0 1 -1 1q-9 -2 -28 -5q-11 -1 -26 -3q-2 0 -4 -1t-2 -2q0 -4 3 -4zM587 405q0 2 -1 3t-3 2h-2q-2 0 -6 -1t-9 -2q-3 -1 -7 -3q0 1 -1 1h-1q-1 0 -2 -1q-1 0 -1 -1q2 -4 3 -8l1.5 -6t2.5 -2q1 0 2 1l1 1q6 1 12 3t9 4q1 1 1 2v1h-1q0 1 0.5 1.5l0.5 0.5
q1 2 1 4zM580 401l-3 -3v-1l-8 -2q-3 0 -6 -1q-1 1 -1 3q0 1 -1 2q6 2 11 4q6 1 8 1t2 -0.5t-2 -2.5zM605 373q-1 0 -5 -2q-3 -1 -5 -1q-5 -1 -16 -3v1v3q-2 3 -5 3q2 2 5 7q2 2 2 3q0 2 -2 4h-4h-4h-3q-2 0 -3 -1t-1 -2t1 -3h2v0h3q3 1 4 1q-1 -1 -3 -4t-3 -5q-1 0 -1 -1v0
q0 -1 1 -2q1 0 2 -1q4 0 4 -3v0q-1 -1 -3 -1q-13 -1 -25 -4q-4 -1 -7 -2q-2 -1 -3 -2t-1 -2q1 -3 3 -3q1 0 3 1q5 2 8 3q9 2 24 4h0.5h0.5q-1 -7 -2 -12h-4h-2t-1 -1t1 -1q2 -3 5 -4q1 -1 2 -1t2 2q2 3 4 13v5l14 2q4 1 7 1q5 1 6 2q2 1 2 2q-1 2 -2 3q0 1 -1 1zM563 421
q7 1 11 1q5 0 5 2q0 1 -2 2l-13 1q-2 0 -2 -3q0 -2 1 -3zM624 392q1 -1 3 -1q4 1 12 5q-4 -6 -9 -13l-3 -3l-3 -3q-1 -2 -1 -3.5v-2.5q1 -1 2 -1h4q1 1 3 2q3 2 9 5q4 3 6 4v2t-0.5 1.5t-1.5 0.5h-3q-5 -3 -9 -5q13 15 13 20q-1 3 -3 3t-5 -1l-8 -4q7 9 7 15q0 2 -1 3t-2 1
h-2q-1 -2 -1 -3v-3q0 -3 -3 -7q-2 -2 -4 -5q-1 -3 -1 -4q0 -2 1 -3zM649 368h-2l-4 -2q-7 -3 -12 -4q-3 -1 -7 -2q-2 -1 -2 -2.5t1 -3t2 -1.5t2 1q6 1 13 5q6 2 9 5q2 2 2 2.5t-1 0.5q0 1 -1 1zM684 372q-2 1 -6 1q-6 0 -12 -1q-1 0 -3 -1q0 1 -1 1q-1 1 -2 1t-2 -1t-1 -2
t3 -13q1 -5 2 -8q0 -3 2 -3q2 1 2 2h2q2 0 5 1q9 2 12 4q2 1 2 3l-1 1l-1 1q2 3 2 8q0 4 -3 6zM679 357v-1q-3 -1 -7 -1q-2 -1 -6 -1q0 2 -1 7v5h3q3 1 5 1q3 1 6 1t3 -3q0 -2 -3 -8zM695 395l-8 7q-9 7 -13 12q-2 1 -3 2v2q0 3 -2 3h-1q-2 0 -2 -2q-1 -4 -3 -7q-1 -5 -4 -9
q-4 -9 -6.5 -13.5t-4.5 -6.5q-1 -2 -1 -4q-1 -1 -1 -2t1 -1q2 0 3 1t3 4l3 6q2 1 6 9q5 9 7 14v-1h1q4 -4 9 -8l10 -8q3 -3 5 -4h1q3 0 3 2q0 1 -1 2zM662 383h4q5 1 8 2q5 1 8 2l2 2t1 1.5t-2 1.5h-2h-1v0q-4 -1 -9 -2q-4 -1 -8 -1h-2q-2 -1 -2 -2v-1q0 -3 2 -3h1zM780 413
v4q0 5 -3 6h-0.5h-0.5h-2q-7 -3 -14 -5q-1 0 -2 -1l-1 2q-2 0 -3.5 -0.5t-1.5 -1.5t1 -3q2 -8 2 -18q0 -24 -7 -47v-2t2 -2q1 0 2 1q4 7 6 23v1q1 0 3 1q3 0 8 3q2 1 4 3q0 -7 1 -13v-11q-2 4 -4 6h-2t-1 -1.5t1 -2.5q2 -5 4.5 -8t4.5 -3q3 1 3 2q-1 17 -1 34v7v21q1 3 1 5z
M773 383v-1v0q-1 0 -3 -1q-5 -3 -8 -3l-3 -1q1 7 1 12v0q10 3 13 5v-11zM774 406q-1 -6 -1 -7v0q-1 0 -7 -2q-1 0 -6 -1v1.5v2.5v11q1 1 3 1q5 3 11 5v-3v-8zM742 386v19v4l1 4q-1 6 -3 6h-1h-1h-2q-2 -1 -6 -2t-6 -1q0 -1 -1 -1v2q-1 2 -2 2q-2 0 -3.5 -0.5t-1.5 -1.5t1 -3
q2 -9 2 -18v0q0 -23 -6 -46q-1 -1 -1 -2q0 -2 2 -2q1 0 2 1q4 7 6 22q1 0 2 1q4 0 8 2l4 2q0 -4 0.5 -9.5t1.5 -9.5q-3 4 -5 5q-1 1 -2 1v-2v-3q2 -5 5 -8q2 -3 4 -3q3 1 3 3q-1 16 -1 31v7zM736 379h-1h-1t-1 -1q-6 -1 -8 -2h-2q1 5 1 12l12 4v-10v-3zM736 403v-5
q-2 -1 -6 -2l-6 -2v3.5v3.5v8q1 1 2 1q2 1 10 4q1 0 1 -4q-1 -4 -1 -7zM870 347q-9 3 -17 8q-7 5 -13 10l-1 1q1 3 4 8q6 11 6 16t-3 6h-1.5h-0.5q-5 0 -12 -2q-4 -2 -7 -3q2 5 3 11q1 0 2.5 0.5t2.5 0.5q16 5 20 9q1 1 1 2v1q-1 1 -2 1q-7 -3 -20 -6q-1 -1 -1.5 -1h-0.5
q0 5 1 10v3q-1 2 -3 2q-4 0 -4 -3v-2q0 -6 -1 -12q-4 -1 -10 -2q-2 -1 -4 -1q-2 -2 -2 -3q0 -3 3 -3h3q1 0 3 1q3 0 6 1q-1 -3 -3 -8q-4 -11 -9 -20q-2 -3 -4 -7q-1 -2 -1 -3q0 -2 1 -2t2 1q2 2 4 6q4 5 7 11q2 -2 7 -8l5 -5l-4 -4q-5 -6 -11 -10q-1 -1 -1 -2q0 -2 3 -2
q1 0 2 1q7 3 13 11l1 1l1 1q2 -2 7 -6q7 -6 13 -9l8 -2q3 -1 6 -1q1 0 2 1v1q0 2 -1 2zM834 370q-1 2 -4 4q-2 3 -6 7q-1 1 -1 2h-1q0 1 1 1h1q9 4 20 6q-2 -7 -6 -14zM958 379l-1 1q-2 -1 -2 -2q0 -3 1 -7v-5q0 -5 -2 -7q-2 -3 -7 -4h-8q-12 0 -14 7q-2 3 -2 8v14h3
q8 3 17 6q5 2 7 4q1 1 1 3l-1 1v0q2 3 3 7q2 5 2 8q0 2 -1 4q-2 2 -5 2q-2 1 -5 1q-4 0 -10 -2q-7 -2 -11 -4q0 1 -2 1v0q-2 0 -2.5 -0.5t-0.5 -2.5q-1 -12 -1 -22v-19q0 -17 12 -21q5 -1 11 -1q10 0 15 3q4 2 6 6q1 2 1 7q0 2 -1 7q-2 5 -3 7zM938 397q1 3 1 6v10v0
q4 1 7 1q4 0 4 -2q-1 -4 -4 -9q-2 -4 -4 -6v-1h-1q-1 -1 -3 -2v2v1zM924 393v15v0q4 2 9 3v-7v-2.5v-1.5q0 -4 -1 -7q-1 0 -1 -1q-3 -1 -7 -2v0v3zM908 400q-3 2 -7 2q-6 0 -9 -1v0q-1 2 -2 2h-2t-1.5 -1t-0.5 -2q1 -4 3 -14q1 -4 1 -9v0q-2 -1 -2 -2q0 -2 1 -3t2 -1l1 1
q5 1 10 5q5 3 8 6q1 1 1 2v1q0 1 -1 1q1 2 2 5v4t-4 4zM905 389q-1 -4 -3 -6l-1 -1l-6 -2v-1q0 4 -1 11q-1 1 -1 3.5v2.5h8q4 0 5 -2q0 -1 -1 -5zM1011 362l-1 1q-2 0 -3.5 -1.5t-1.5 -2.5q0 -3 2 -4q1 -2 3 -2q4 0 4 4t-3 5zM1017 412.5q-1 1.5 -2 1.5t-2.5 -1.5l-2.5 -2.5
v-3v-2q-2 -5 -2 -16q-1 -8 -1 -12v-4q0 -1 0.5 -2t2.5 -1q3 0 3 4q1 20 4 33q0 2 1 3q0 1 -1 2.5z" />
    <glyph glyph-name="yaokongqi" unicode="&#xe857;"
d="M255 726q23 13 36 33l5 7q27 41 86 60q57 19 107 -6q31 -14 56 -14q26 0 27 21q2 26 -38 44q-58 26 -164 4q-130 -50 -149 -110q-8 -27 10 -38q11 -8 24 -1zM302 644q3 -5 11.5 -10t16.5 -4q16 5 24 23l4 6q16 26 61 39q46 12 73 -2q21 -16 39 -11q8 4 13 12t3 14
q-1 4 -4 9t-12.5 12t-23.5 11.5t-40 4t-59 -8.5q-34 -10 -57.5 -23t-33.5 -25t-13.5 -21.5t-2.5 -16.5zM276 528l175 -625q3 -11 13.5 -16.5t21.5 -2.5l299 81q11 4 17 14t3 21l-175 624q-3 12 -13.5 18t-21.5 2l-299 -82q-11 -3 -16.5 -13t-3.5 -21zM588 -13
q-12 -20 -35 -26.5t-43 5.5q-21 12 -28 35.5t5 43.5q11 22 34.5 28t44.5 -6q20 -11 26.5 -35t-4.5 -45zM699 104q21 -12 27.5 -35.5t-5.5 -44.5q-11 -20 -34 -26.5t-44 5.5t-27.5 35.5t5.5 43.5q11 21 34 27.5t44 -5.5zM583 218q11 21 34.5 27.5t44.5 -5.5q20 -12 26.5 -35
t-5.5 -44t-34.5 -27t-43.5 5q-21 12 -27.5 35.5t5.5 43.5zM527 203q21 -11 27.5 -34.5t-5.5 -44.5q-11 -21 -34 -27t-44 6t-27.5 35t5.5 44t34.5 27t43.5 -6zM384 488q26 47 77 60q50 15 96 -12q47 -27 61 -78q14 -50 -11 -98q-25 -45 -76 -60q-51 -13 -97 13q-46 27 -60 78
q-15 52 10 97zM461 366q25 -15 53.5 -7t42.5 33t6 53.5t-33 42.5q-26 15 -54 7t-42.5 -33.5t-6.5 -53.5t34 -42z" />
    <glyph glyph-name="yuyinsousuo" unicode="&#xe858;"
d="M512 258q82 0 140.5 55.5t58.5 133.5v251q0 78 -58.5 133.5t-140.5 55.5t-140.5 -55.5t-58.5 -133.5v-251q0 -78 58.5 -133.5t140.5 -55.5zM877 431v0v0q0 20 -15 33.5t-35.5 13.5t-35 -13.5t-14.5 -33.5q0 -104 -77.5 -177.5t-187.5 -73.5t-187.5 73.5t-77.5 177.5
q0 20 -14.5 33.5t-35.5 13.5t-35.5 -13.5t-14.5 -33.5v0q0 -131 90.5 -228t224.5 -114v-114h-165q-21 0 -35.5 -13.5t-14.5 -33t14.5 -33.5t35.5 -14h430q21 0 35.5 14t14.5 33.5t-14.5 33t-35.5 13.5h-165v114q134 17 224.5 114t90.5 228z" />
    <glyph glyph-name="xiajia1" unicode="&#xe859;"
d="M936 45h-848q-35 0 -60 25t-25 60v212l280 381h466l272 -381v-212q0 -35 -25 -60t-60 -25zM724 680h-415l-240 -338l173 -1l93 -127l364 -1l87 128l175 1zM390 426l103 3v167q0 18 11.5 30t28.5 12t27 -12t10 -30v-167l104 -3l-141 -161z" />
    <glyph glyph-name="yichu" unicode="&#xe85b;"
d="M870.5 742.5q-97.5 97.5 -228 132.5t-261 0t-228 -132.5t-132.5 -228t0 -261t132.5 -228t228 -132.5t261 0t228 132.5t132.5 228t0 261t-132.5 228zM830 66q-86 -86 -202 -116.5t-232 0t-202 116.5t-116.5 202t0 232t116.5 202t202 116.5t232 0t202 -116.5t116.5 -202
t0 -232t-116.5 -202zM716.5 588.5q-10.5 10.5 -25 10.5t-25.5 -10l-154 -155l-154 155q-11 10 -25.5 10t-25 -10.5t-10.5 -25t10 -25.5l155 -154l-155 -154q-10 -11 -10 -25.5t10.5 -25t25 -10.5t25.5 10l154 155l154 -154q11 -11 25.5 -11t25 10.5t10.5 25t-11 25.5
l-154 154l154 154q11 11 11 25.5t-10.5 25z" />
    <glyph glyph-name="weijiejue" unicode="&#xe612;"
d="M957 320q-16 -67 -74 -96q-33 -19 -77 -19h-99q15 -53 19 -106q0 -54 -16 -102q-15 -41 -48 -64q-23 -20 -67 -26q-41 0 -64 7q-46 15 -64 60q-9 21 -16 71v6q0 5 -1.5 12.5t-1.5 10.5q-20 90 -80 150q-23 27 -67 54q-29 18 -51 13h-119q-31 0 -52 21.5t-21 52.5v365
q0 31 21 52t52 21h160q12 0 24.5 2t19.5 3.5t25.5 7t23.5 6.5q38 13 65 20.5t81 14.5t116 7q124 0 183 -64q33 -33 38 -83q38 -28 48 -71q8 -36 -3 -70q33 -28 38 -70q6 -39 -12 -71q13 -22 19 -51q5 -30 0 -64zM867 461q4 4 8 14.5t2 20.5q-5 20 -32 38q-11 8 -16 23
q-5 14 6 25q2 3 4 7.5t4.5 16t1.5 21.5q-6 22 -32 35q-21 11 -16 36q0 32 -19 51q-34 38 -128 38q-56 0 -107.5 -7t-73 -13t-59.5 -18q-66 -20 -100 -23v-377q20 -7 26 -13q70 -43 116 -108.5t63 -144.5q2 -5 3.5 -16t3.5 -16q5 -37 11.5 -53t20.5 -20q40 -14 67 6
q35 25 35 109q0 15 -5.5 44.5t-13.5 51.5q-11 32 6 57q16 26 51 26h119q24 0 38 10q29 17 39 51q10 36 -20 80q-18 27 -3 48zM131 368v0h106v362h-106v-362z" />
    <glyph glyph-name="yijianjieping" unicode="&#xe866;"
d="M958 70h-33v661q0 13 -10 23t-23 10h-727v82q0 14 -9.5 23.5t-23 9.5t-23.5 -9.5t-10 -23.5v-82h-33q-13 0 -23 -10t-10 -23.5t10 -23t23 -9.5h33v-661q0 -13 10 -23t23 -10h727v-82q0 -14 9.5 -23.5t23 -9.5t23.5 9.5t10 23.5v82h33q13 0 23 10t10 23.5t-10 23t-23 9.5z
M165 70v628h694v-628h-694zM281 532.5q0 -27.5 19.5 -46.5t46.5 -19t46.5 19t19.5 46.5t-19.5 47t-46.5 19.5t-46.5 -19.5t-19.5 -47zM808 177l-98 262q-4 10 -15 11t-17 -8l-111 -169q-9 -14 -24 -7l-189 93q-15 7 -24 -7l-113 -172q-5 -9 0 -18t16 -9h558q10 0 15 7.5
t2 16.5v0z" />
  <glyph glyph-name="remenwenti" unicode="&#xe876;"
         d="M1015 384q0 -208 -147.5 -355.5t-355.5 -147.5t-355.5 147.5t-147.5 355.5t147.5 355.5t355.5 147.5t355.5 -147.5t147.5 -355.5zM514 811q-117 0 -216 -57.5t-157 -157t-58 -216.5t58 -216t157 -157t216 -58t216.5 58t157 157t57.5 216t-57.5 216.5t-157 157
t-216.5 57.5zM786 611l-8 -9l-62 -61q-13 -13 -26 0q-6 5 -6 12.5t6 12.5l8 9l62 62q13 12 26 0q6 -6 5.5 -13.5t-5.5 -12.5zM721 364q0 -94 -71 -156l-12 -10v0h-1l-1 -1l-0.5 -1l-0.5 -1q-2 -3 -3 -3q-4 -8 -6 -14l-1 -1v1v0q-1 -3 -2 -7q-2 -6 -6 -16t-5 -14
q-17 -44 -34 -66q-22 -27 -55 -32h-5h-6h-2q-8 0 -14 1q-37 8 -62 54q-10 19 -18 40q-1 2 -8 18l-3 9l-2 5l-1 2q-3 7 -6 13q-1 1 -4 6l-1 3q-1 0 -2 1.5t-2 2.5q-1 0 -1 1v0q-15 11 -28 25q-45 49 -53 115q-8 58 19 114q23 50 71 83q47 32 106 35t110 -24q50 -27 80 -75
q30 -50 30 -108zM684 377q0 2 -1 6v4q-3 16 -5 24q-2 7 -4 12q-2 4 -2 6l-1 1v1v-1v1v0v0v0l-1 1v-1q-8 20 -22 38q-12 16 -28 29q-1 0 -3 2l1 -1q-1 1 -3 2l-2 2q-15 11 -33 19l-1 0.5l-1 0.5v-1q-20 9 -42 12v0v0h-0.5h-0.5h-2q-20 3 -40 0h-3v0q-2 0 -6 -0.5t-6 -1.5
q-17 -3 -33 -10h-1v0q-17 -8 -32 -18q-5 -4 -8 -6q-14 -11 -26 -25l-2 -3v0v0v-1l-1 -1l-2 -3q-11 -15 -19 -32q0 -1 -1 -4v1l-6 -16q-4 -13 -6 -26v-1v1v-1v-2q-2 -20 0 -41v-1v-3q4 -22 12 -42v0l1 -3q8 -16 18 -31q0 -1 1.5 -2.5l2.5 -2.5v-1v0h1h-1h1l2 -3
q11 -13 25 -24l2 -2l1 -1l-0.5 0.5l-0.5 0.5q9 -7 17 -19t10 -17.5t9 -23.5q5 -12 7 -18l4 -9l1 -1l1 -4q9 -21 19 -34l2 -3h-1h1v-1l6 -6l6 -6h1q3 -3 8 -5v0q5 -2 7 -2h2h-1h1l1 -1h2v0h3v0h5h1h1q6 2 8 2q1 1 3 2h1q3 2 7 4l3 3l-2 -2q2 1 2 2q3 2 6 6q3 2 5 5l-2 -2
q5 6 5 7q8 11 15 28l1 1l1 4q6 15 9 23q8 21 10 28q8 17 13 25q5 7 9 10l3 2l2 1v1v0v0q7 5 13 11q9 8 17 18v0v0v0v0l1 1l0.5 0.5t0.5 1.5l10 14q6 10 11 22l1 3q4 8 6 17q4 13 5 25l1 3q1 11 1 19q-1 4 -1 13zM530 268v-62q0 -8 -5 -13t-13 -5q-7 0 -12.5 5.5t-5.5 12.5
v79q0 8 5 13t13 5h4h3q5 0 8 1q2 0 5.5 0.5t5.5 1.5l5 1q0 1 1 1h2v1h1l3 1l4.5 3t4 2.5t4.5 2.5v0l1 2q2 1 4 3q1 1 2.5 3t2.5 3l2 2v0v0v0l1 1q1 2 3 5q3 4 5 8h-1l1 1v0q3 7 4 15l0.5 1.5t0.5 2.5v-1v3v10v4v2q-1 4 -3 10.5t-3 7.5v0.5v0.5q-1 1 -1.5 2.5l-0.5 1.5l-6 8
l-1 2l-1 1t-1 2l-7 7l-0.5 0.5t-1.5 0.5l-1 2v-1l1 -1v1h-1l-1 1l1 -1l-1 1q-6 4 -13 7l-1 1q-8 3 -9 3q-5 1 -9 2h1h-1h-1v0h-1q-7 1 -15 0h-2l-1.5 -0.5t-2.5 -0.5q-7 -1 -14 -4h-1q-3 -2 -16 -10l-1 -1q-6 -5 -10 -10v0v1q0 -1 -0.5 -1.5l-0.5 -0.5q-4 -6 -7 -12l-2 -4
l1 2q-1 -2 -1 -3q-3 -7 -4 -14l-1 -2v-9q0 -8 -5.5 -13t-12.5 -5q-8 -1 -13.5 5t-5.5 13q1 28 14.5 52t37.5 39q46 27 94 7q50 -20 64 -70t-18 -91q-28 -37 -74 -42zM529 442h-1h1v0zM583 345l1 1v0zM573 329l2 2zM578 522v0v0zM512 156q8 0 13 -5.5t5 -12.5q1 -8 -5 -13.5
t-13 -5.5q-8 0 -13 5.5t-5 13.5q-1 7 5 12.5t13 5.5zM353 430zM375 468l1 1v0zM477 98l-1 1v0v1zM518 79h-1v0l1 1v-1zM618 228l-2 -1zM506 79v0q3 0 2 0h-2zM512 609q-7 0 -12.5 5.5t-5.5 12.5v95q0 7 5 12.5t13 5.5q7 0 12.5 -5.5t5.5 -12.5v-95q0 -7 -5 -12.5t-13 -5.5z
M308 540l-8 9l-62 62q-13 12 0 26q5 5 12.5 5t13.5 -5l8 -9l62 -62q13 -12 0 -26q-5 -5 -12.5 -5t-13.5 5zM512 32h-3q-8 0 -16 2q-41 8 -69 58v1q-10 19 -19 41q-2 4 -5 12q-2 4 -2 6l-7 16q-2 6 -5 12q-2 4 -3 5l-1 1q-2 2 -2 3l-1 1v0v0q-16 12 -29 26q-48 52 -56 121
q-8 62 19 121q25 52 76 87q49 34 111 37t116 -26q53 -28 84 -79q32 -52 32 -113q0 -47 -19.5 -90t-55.5 -74q-5 -4 -12 -10l-0.5 -0.5l-0.5 -0.5v0v-1q-2 -1 -2 -2q-4 -6 -6 -12v0v-1v0q-1 -1 -1.5 -2.5l-0.5 -1.5l-1 -2q-2 -6 -6 -17q-3 -9 -5 -13q-17 -45 -36 -69
q-23 -30 -61 -35q-3 -1 -7 -1h-6zM443 103q23 -41 55 -48q5 -1 12 -1h1h0.5h0.5h6h2h1q29 5 48 28q17 21 32 63q3 8 5 12q5 13 6 18v0l1 2q1 2 1 3q1 0 1 1v1v0v0q4 8 8 15v0q0 1 3 4q0 1 1 2v0q1 1 1 2l2 1l1 1q5 4 12 9q67 59 67 148q0 55 -29 102q-28 45 -75 71
q-49 26 -105 23q-55 -3 -100 -34t-67 -78q-25 -53 -18 -108q8 -62 50 -109q12 -13 26 -23l2 -2v0h1l2 -4h1v0q1 -1 2 -3l1 -2h1q1 -3 4 -7l6 -14l3 -7l3 -9q1 -1 2 -3t1 -3q2 -4 5 -12v0q7 -19 17 -39zM397 202zM394 206zM394 206zM512 68v0h-3v0h-4h-1q-2 0 -4 1l-6 2h-1
q0 1 -1 1v0v0q-5 2 -10 5l-1 1v1q-5 3 -7 6l-6 6v1v0h-1v1l-2 2l-1 2v0q-10 14 -19 35l-2 4v0v2l-4 9q-1 2 -2.5 6t-2.5 6l-2 6q-1 3 -2 5q-15 38 -30 50h-0.5t-0.5 0.5t-1 0.5l-2 1q-13 12 -26 26l-1 2q-1 1 -2 3v0h-1l-0.5 1l-0.5 1q-1 2 -2 3q-11 15 -19 32l-1 3v0.5v0.5
q-9 21 -13 45v1v0v3q-3 21 0 43v1v1v1q0 1 1 2q2 13 6 26q2 7 5 16l1 1v2q1 1 1 2q8 18 20 34v0l2 3l1 1v0v0q1 1 1 2l2 1q12 15 28 28v0q5 4 8 6q16 11 34 19v0h0.5h0.5v1q17 6 35 10q1 0 8 1l1.5 0.5t2.5 0.5v0v0h2q1 0 1 0.5t1 0.5q21 2 42 -1h1h1h1h1v0q22 -3 43 -11
l1 -1q1 0 1.5 -0.5l0.5 -0.5h1v0q18 -9 35 -20l1 -0.5t1 -1.5l3 -2l1 -1q1 0 1 -1q17 -13 30 -30v0q14 -18 23 -38q0 -1 1 -2v0v-1v0l1 -1v-1q0 -1 2 -5v-1q3 -7 4 -13q2 -7 5 -22v-2v-1q1 -4 1 -5v-6q1 -8 1 -14q0 -9 -1 -20v-3v-1q-2 -13 -6 -26q-2 -9 -6 -18l-0.5 -0.5
t-0.5 -1.5v0v-1q-6 -12 -13 -24q-4 -7 -10 -15q0 -1 -1 -1v0v0v-1v0l-2 -2q-7 -8 -17 -18q-5 -4 -13 -11l-1 -1v0l-2 -1l-2 -2q-3 -3 -7.5 -9t-11.5 -21v-1q-3 -8 -10 -26v-2q-4 -10 -9 -22v-1l-2 -5v0q-8 -18 -16 -30q-1 -2 -3 -5q-1 0 -1.5 -1l-0.5 -1l-2 -2l-2 -3
q-3 -3 -6 -5q-1 -1 -2 -3v0h-1h-1l-2 -2q-3 -2 -8 -5h-1q0 -1 -1 -1h-1h-1q-1 -1 -2 -1q-4 -1 -9 -2v0v0h-1q-2 -1 -4 -1h-3v0zM510 90h2h4h1q4 2 6 2q1 0 2 1h1q3 2 5 3l0.5 0.5l0.5 0.5l1 1q3 2 6 5v0q1 2 3 4v0q0 1 0.5 1h0.5q2 3 2 4q8 11 14 27l2 5q5 11 9 22v1
q7 18 11 27v1q7 18 14 26q6 9 11 13l1 1t2 1v0.5v0.5h2q6 6 12 11q9 9 15 17q2 2 3 4q5 6 8 12q7 10 11 19q0 1 1 4v0q4 9 6 16q3 12 5 23v3q1 9 1 18q0 7 -1 12v6l-1 4v2q-3 14 -4 20q-2 5 -4 12v0q0 1 -1 2.5t-1 2.5v1q-1 0 -1 0.5v0.5q-8 19 -21 35q-12 15 -26 27l-1 1
l-1 1l-2 1v0h-1q0 1 -0.5 1t-0.5 1q-15 10 -31 17q-1 1 -3 1q-19 8 -39 11v0h-1h-2q-18 2 -38 1l-2 -1h-2h-1h-0.5h-1.5q-6 -1 -6 -2q-16 -3 -31 -9h-1q-16 -7 -30 -17q-4 -3 -7 -5q-13 -11 -25 -25l-2 -2l-0.5 -0.5t-0.5 -1.5l-2 -2q-10 -15 -17 -30l-1 -2v-0.5v-0.5h-1
q-3 -8 -5 -15q-3 -12 -5 -24v-1v-1v0l-1 -1q-2 -19 0 -39h1v-4q3 -20 11 -38v-1l1 -2q7 -15 17 -29q0 -1 1 -2l1 -1q1 -1 2 -3l2 -2q11 -13 23 -23l3 -2v-1q20 -15 37 -59q1 0 1.5 -2t0.5 -3l3 -6q3 -8 4 -11l5 -11l1 -3q9 -21 17 -32l2 -3l2 -1q0 -2 1 -2l3 -3l5 -5v0
q2 -2 6 -3l5 -2h1q1 -1 3 -1zM367 252zM682 296zM682 296zM662 304v0v0zM683 342zM330 342zM352 345zM512 108q-12 0 -20.5 8.5t-8.5 20.5q-1 12 7 21q9 9 22 9q12 0 20.5 -8.5t8.5 -20.5q1 -11 -8 -20q-9 -10 -21 -10zM512 145q-3 0 -5 -3q-2 -2 -2 -4q0 -8 7 -8q3 0 6 3
q1 2 1 4q0 8 -7 8zM511 177q-11 0 -19 8q-9 9 -9 21v79q0 12 8 20.5t21 8.5q2 1 4 0h1.5h1.5v0q3 0 7 1l4 1q4 0 5 1q3 0 4 1h1l2 1v0h1l2 1q3 2 4 2l2 2t2 1q2 1 3 2l1 1v0q2 1 3 3q1 0 2 1.5l1 1.5l2 2l2 2v0q2 3 3 5l3 6q1 2 1 3q2 5 3 11v0v1v1l1 1v1v9v4l-1 1
q0 4 -2 10l-2 6v0.5t-1 0.5q-1 2 -1 3q-3 4 -5 7l-1 2l-0.5 0.5t-1.5 0.5q-3 4 -6 6v1h-1v0l-2 2v0q-5 3 -11 6l-1 1h-0.5h-1.5l-5 2q-5 1 -7 2h-4q-6 1 -11 0h-1h-2h-0.5t-1.5 -1q-6 -1 -12 -3v0q-4 -2 -11 -7q-1 0 -3 -2h-1q-5 -5 -8 -9v0h-1v0q-3 -5 -6 -11v0q0 -1 -1 -2
t-1 -2q-2 -6 -3 -12v-1q-1 -5 -1 -8q0 -12 -8.5 -20.5t-20.5 -8.5q-11 -1 -20 8q-10 9 -10 21q1 31 16 58t42 42q50 31 103 9q55 -22 71 -77q15 -57 -19 -102q-28 -36 -72 -45v-52q0 -12 -8.5 -20t-20.5 -9h-2zM513 292h-1q-7 0 -7 -7v-79q0 -3 2 -5t5 -2q7 0 7 7v62
q0 10 10 11q41 4 67 37q28 37 15 82t-57 63q-43 18 -84 -7q-21 -13 -33.5 -34.5t-13.5 -46.5q0 -3 3 -5q2 -2 4 -2q8 0 8 7v10v1v0l1 2q1 8 4 15q0 2 1 3v0q0 1 1 2l0.5 1l0.5 1v0q3 7 8 14l0.5 0.5l0.5 0.5v0l2 2q4 5 9 9l1 1l1 1l1 1q1 0 4 2q8 6 13 8h1l1 1v0q7 2 16 4
l1 0.5l1 0.5h1.5h0.5h0.5h0.5l2 1v0q9 0 17 -1h1h1v0v0h3l8 -2q3 -1 7 -2q0 -1 1 -1h1l0.5 -0.5l0.5 -0.5h2q7 -4 13 -8q2 -1 2 -2h1q1 -1 2 -1.5t1 -1.5q4 -3 8 -8l1 -1l1 -1l1 -1v0v0l1 -2v0q3 -4 6 -9q0 -1 1 -2.5l1 -1.5l1 -1v-1q1 -1 1 -2l2 -6q3 -8 3 -13v-1l1 -1v-6
v-11v-3l-0.5 -0.5t-0.5 -1v-1.5v-2q-2 -8 -5 -15v0v-1v-1v0q-1 -1 -2 -3q-1 -3 -3 -6q-3 -4 -4 -6q0 -1 -1.5 -2.5l-2.5 -2.5l-0.5 -0.5l-0.5 -0.5q-3 -3 -4 -5v0q-4 -3 -4 -4l-2 -1q-1 -1 -1.5 -1t-1.5 -1t-2 -1q-4 -3 -5 -4h-1l-1.5 -1t-2.5 -2h-1l-2 -1v0l-1 -1h-2
q-1 0 -3 -1q-4 -2 -5 -2q-4 -1 -7 -1l-1.5 -0.5t-2.5 -0.5h-1q-6 -1 -10 -1h-0.5h-0.5h-4h-1zM539 317zM539 318zM544 319v0v0v0v0zM545 319zM322 524q-13 0 -21 9l-71 70q-8 8 -8.5 20t8.5 21q7 9 20 9t21 -9l71 -70q9 -8 9 -20t-9 -21q-7 -8 -20 -9v0zM316 548q2 -2 6 -2
q3 0 4 2q5 6 0 10l-70 71q-3 2 -6 2t-4 -2q-5 -6 -1 -10zM703 524q-12 0 -21 8q-8 8 -9 20q0 13 9 22l71 70q8 9 20 9t21 -8q8 -8 9 -20q0 -13 -9 -22l-9 -9l-62 -61q-8 -9 -20 -9zM773 631q-3 0 -5 -2l-71 -71q-2 -2 -2 -5t2 -4q6 -5 11 -1l70 71q2 2 2 5t-1 4q-2 3 -6 3z
M511 598q-11 0 -19 8q-9 9 -9 21v95q0 12 8 20.5t21 8.5q11 1 20 -8t9 -21v-95q0 -12 -8 -20t-21 -9h-1zM512 609zM513 729h-1q-7 0 -7 -7v-95q0 -3 2 -5t4 -2q8 0 8 7v95q0 3 -2 5t-4 2z"/>
    <glyph glyph-name="xianshimianfei" unicode="&#xe875;"
d="M579 449q-9 -13 -23 -26h52q11 10 23 26h-52zM667 411h-48q-2 -26 -5 -37h53v37zM6 536v-304h1012v304h-1012zM180 381q4 -11 4 -21q0 -16 -9 -20q-5 -2 -17 -2h-9q-1 7 -3 13q7 -2 14 -2q6 0 8.5 2.5t2.5 8.5q0 11 -4 22q-5 10 -18 24q13 24 23 51h-34v-146q0 -12 1 -19
h-15q2 8 2 19v142q0 8 -1 16q4 -1 13 -1h30q10 0 13 1l7 -9q-2 -3 -3 -6q-10 -24 -22 -46q13 -16 17 -27zM294 293q-31 18 -47 42q-13 18 -20 47h-20v-72q1 1 2 1q20 5 36 11v-13q-17 -4 -24 -6q-10 -3 -12 -4q-12 -3 -17 -5l-5 12q6 2 8 12v127q0 12 -1 21q7 -1 20 -1h52
q14 0 19 1v-22v-42v-21q-9 1 -19 1h-27q5 -19 12 -32q26 17 35 29l10 -9q-1 -1 -2 -1.5t-1 -1.5q-15 -12 -36 -26q16 -22 46 -37q-5 -4 -9 -11zM368 311v12h-32v-19h-14q1 8 1 21v116q0 11 -1 19q7 -1 19 -1h22q11 0 18 1q-1 -7 -1 -19v-112q0 -9 1 -18h-13zM500 414h-20h-6
v-101q0 -10 -4.5 -13t-18.5 -3q-10 0 -24 1q-1 7 -4 14q16 -3 28 -3q10 0 10 6v99h-51q-13 0 -21 -1v14q8 -1 21 -1h51v24q0 15 -2 23h16q-1 -10 -1 -23v-24h6q12 0 20 1v-13zM397 389l11 7q18 -21 30 -44l-11 -8q-12 25 -30 45zM695 303q-6 -7 -37 -7q-23 0 -30.5 3
t-7.5 12v52h-9l-1 -3q-10 -28 -37 -48q-16 -12 -45 -21q-2 5 -9 12q33 7 53 24q17 14 26 36h-31q-14 0 -23 -1q1 7 1 19v32q-7 -6 -14 -10q-4 5 -8 9q30 20 49 48q8 11 10 17l14 -4q-1 -1 -4 -5l-2 -4q-1 -1 -3 -4h38q15 0 19 1l6 -7q-1 -2 -7 -9q-10 -13 -20 -22h34h23
q-1 -7 -1 -18v-24q0 -12 1 -19q-10 1 -23 1h-24v-48q0 -4 4.5 -5.5t19.5 -1.5q25 0 29 4q3 4 3 26q7 -4 13 -5q-1 -24 -7 -30zM819 356q-1 -26 -10 -37q-12 -14 -40 -21q-15 -4 -37 -6q-3 7 -7 13q40 0 62 12q20 11 20 42q0 4 -1 8h14q0 -4 -1 -11zM898 290q-40 17 -77 28
l5 11l39 -14l21 -7q5 -2 16 -6zM900 410q-2 -13 -4 -16q-3 -4 -11 -4q-5 0 -13 2q-1 7 -3 11q8 -3 13 -3q4 0 5 1.5t2 9.5h-46v-8q0 -7 1 -12h-14q1 5 1 12v8h-43q-9 -15 -30 -24q7 -1 14 -1h82q16 0 23 1q-1 -6 -1 -20v-21q0 -16 1 -22h-15q1 10 1 22v30h-100v-30
q0 -13 1 -22h-15q1 8 1 22v20v17q-11 -4 -22 -7q-2 6 -6 10q39 9 53 25h-27q-10 0 -18 -1q8 15 12 32h18h26q1 6 1 10h-35q-13 0 -20 -1v12q6 -1 20 -1h36q0 7 -1 14h13q-1 -5 -1 -14h32v2q0 7 -1 12h14q-1 -5 -1 -12v-2h29q13 0 19 1q-1 -6 -1 -13v-7q0 -8 1 -11
q-9 1 -19 1h-29v-13h40q14 0 19 1q0 -1 -2 -11zM336 399h32v49h-32v-49zM557 374h45q3 11 4 37h-49v-37zM336 334h32v54h-32v-54zM273 454h-66v-25h66v25zM793 420h38v13h-35q-1 -6 -3 -13zM798 442h33v10h-32q0 -2 -0.5 -5.5t-0.5 -4.5zM273 418h-66v-25h66v25zM747 420h34
q2 5 4 13h-33zM878 452h-35v-10h35v10z" />
    <glyph glyph-name="zhe" unicode="&#xe878;"
d="M899 887h-774q-48 0 -82 -34t-34 -82v-774q0 -48 34 -82t82 -34h774q48 0 82 34t34 82v774q0 48 -34 82t-82 34zM347 94q0 -32 -18 -43t-70 -11q-7 0 -54 3q-2 26 -11 49q35 -6 77 -6q16 0 21.5 4.5t5.5 16.5v209q-15 -5 -73 -22q-4 -1 -35 -12l-14 54q37 4 122 30v171
h-48q-36 0 -63 -3v52q29 -4 63 -4h48v73q0 46 -5 78h59q-5 -31 -5 -76v-75h37q36 0 62 3v-51q-27 3 -64 3h-35v-157q3 2 8 3q28 9 96 35v-46q-59 -24 -104 -40v-238zM876 445q-38 5 -88 5h-38v-328q0 -53 6 -89h-62q5 37 5 89v328h-156q-4 -103 -10.5 -155t-20.5 -100
q-13 -47 -32.5 -82.5t-53.5 -74.5q-19 22 -42 36q33 34 51.5 67t32.5 81q28 105 28 343q0 72 -4 103h13q42 0 108 11t125 28q49 14 73 29l41 -45q-135 -47 -308 -67v-129h242q51 0 90 5v-55z" />
    <glyph glyph-name="quan" unicode="&#xe879;"
d="M602 417h-150q-40 -53 -103 -100q23 -2 55 -2h230q56 0 76 3q-43 30 -108 99zM899 887h-774q-48 0 -82 -34t-34 -82v-774q0 -48 34 -82t82 -34h774q48 0 82 34t34 82v774q0 48 -34 82t-82 34zM853 233q-78 38 -139 81q-1 -8 -4 -51q-7 -144 -26 -182q-8 -17 -24 -24
t-49 -7q-39 0 -96 5q-3 27 -11 51q64 -9 106 -9q18 0 26 6.5t11 25.5q11 52 15 144h-163q-11 -51 -26.5 -83.5t-41.5 -60.5q-57 -61 -172 -100q-15 28 -33 44q107 29 163 82q36 35 50 83q3 9 9 35h-39q-50 0 -80 -5v34q-50 -32 -128 -70q-10 20 -34 41q87 35 140 68.5
t89 75.5h-127q-52 0 -83 -5v53q30 -4 83 -4h159q23 40 38 91h-145q-53 0 -83 -4v51q25 -4 83 -4h32q-23 47 -64 100l46 18q38 -53 69 -118h72q16 95 16 137v7l56 -5q-8 -26 -18 -104q-1 -2 -2.5 -11.5t-4.5 -23.5h96q51 61 80 120l50 -19q-42 -63 -75 -101h64q59 0 85 4v-51
q-31 4 -85 4h-224q-14 -53 -34 -91h304q60 0 86 4v-53q-38 5 -86 5h-127q38 -34 50 -44t35 -26q58 -38 148 -67q-21 -18 -37 -47z" />
    <glyph glyph-name="guanyingquanjiaobiaoshixin" unicode="&#xe87e;"
d="M0 894h1022v-1022z" />
    <glyph glyph-name="erweima" unicode="&#xe88d;"
d="M54 874h393q12 -1 19 -8.5t9.5 -23t3 -26t0 -33t-0.5 -28.5v-215q0 -8 0.5 -28t0 -30.5t-2 -24.5t-7 -22t-14.5 -12t-27 -4.5t-43.5 0.5t-30.5 1h-209q-8 0 -29.5 -0.5t-32.5 -0.5t-26.5 2.5t-23 9.5t-9.5 19v394q8 23 30 30zM108 785v-280h284v284h-283q-1 0 -1 -4z
M582 874h393q26 -10 30 -35v-384q-6 -27 -27 -33q-12 -4 -28.5 -4t-39 1t-31.5 1h-202q-9 0 -32 -1t-40 -1t-28 4q-10 3 -16 11.5t-8 24t-2.5 27t0 33t0.5 29.5v200q0 10 -0.5 32.5t-0.5 34.5t2.5 27t10 23t19.5 10zM636 785v-280h284v284h-283q-1 0 -1 -4zM237 703
q30 5 50.5 -11t21.5 -44q0 -34 -28.5 -51t-57.5 -2q-21 11 -28 35t4.5 46t37.5 27zM765 703q48 9 64 -30q15 -35 -7 -64q-20 -25 -57 -19q-28 4 -39 30t0 52t39 31zM445 -109h-390q-25 8 -31 32v392q8 23 26 28q12 4 28.5 4t39 -1t31.5 -1h202q9 0 31.5 1.5t39.5 1t29 -4.5
q11 -3 17 -11.5t8 -23.5t2.5 -26.5t0 -33t-0.5 -28.5v-208q0 -7 0.5 -30t0 -33.5t-3 -26t-10.5 -22.5t-20 -9zM108 256v-280h284v284h-283q-1 0 -1 -4zM1005 310v-110q-1 -9 -1 -58.5v-60.5h-281v64q-6 2 -42.5 1.5t-44.5 0.5q-2 -22 -1.5 -127.5t0.5 -128.5h-52
q-13 3 -20.5 11t-10 23.5t-3 27t0.5 33.5t1 32v202q0 8 -1 31.5t-1 40.5t4 28q2 6 5 10.5t9.5 7t11 4.5t14 2.5t14 0.5h17h16.5h191v-174h89q0 16 -0.5 88t1.5 86q22 0 40 -0.5t30.5 -9t13.5 -25.5zM244 175q32 4 52.5 -21.5t8.5 -57.5q-7 -18 -22.5 -27t-32.5 -8t-32 9
t-22.5 25.5t-1.5 39.5q9 36 50 40zM818 -109h-95q0 9 -0.5 51.5t1.5 50.5h94v-102v0zM1005 -7v-67q-5 -27 -31 -35h-68q1 9 0.5 51.5t1.5 50.5h97v0zM1005 -7z" />
    <glyph glyph-name="jiatingdongtai" unicode="&#xe88e;"
d="M512 878q-134 0 -248 -57.5t-180 -157.5t-66 -217q0 -101 49.5 -189t135.5 -149v-218l217 131q47 -8 92 -8q134 0 248 58t180 157.5t66 217t-66 217.5t-180 157.5t-248 57.5zM216.5 372q-30.5 0 -52 21.5t-21.5 52t21.5 52.5t52 22t52.5 -22t22 -52.5t-22 -52
t-52.5 -21.5zM512 372q-31 0 -52.5 21.5t-21.5 52t21.5 52.5t52.5 22t52.5 -22t21.5 -52.5t-21.5 -52t-52.5 -21.5zM807.5 372q-30.5 0 -52.5 21.5t-22 52t22 52.5t52.5 22t52 -22t21.5 -52.5t-21.5 -52t-52 -21.5z" />
    <glyph glyph-name="fenxiang" unicode="&#xe895;"
d="M823 253q-52 0 -95 -27t-66 -72l-282 193q1 10 1 21q0 18 -3 35l291 199q24 -40 64.5 -63.5t89.5 -23.5q74 0 126.5 52.5t52.5 127t-52.5 127t-127 52.5t-127 -52.5t-52.5 -126.5q0 -15 2 -30l-292 -200q-25 38 -65 60t-87 22q-74 0 -126.5 -52.5t-52.5 -127t52.5 -127
t126.5 -52.5q51 0 93 25.5t65 68.5l284 -194v-15q0 -74 52.5 -126.5t127 -52.5t127 52.5t52.5 127t-52.5 127t-126.5 52.5z" />
    <glyph glyph-name="icon-test" unicode="&#xe89a;"
d="M9 -119v1006h1006v-1006h-1006zM949 820h-874v-873h874v873z" />
    <glyph glyph-name="icon-test1" unicode="&#xe89b;"
d="M7 5v758h1010v-758h-1010v0zM951 696h-878v-624h878v624z" />
    <glyph glyph-name="icon-test2" unicode="&#xe89c;"
d="M11 109v550h1002v-550h-1002zM946 593h-869v-418h869v418z" />
    <glyph glyph-name="caitu" unicode="&#xe89d;"
d="M251 93h521v416l83 83v-499h124q18 0 30 -12t12 -29.5t-12 -29.5t-30 -12h-124v-83q0 -17 -12.5 -29t-29.5 -12t-29 12t-12 29v83h-623q-18 0 -30 12t-12 30v644h-63q-17 0 -29 12t-12 29t12.5 29.5t28.5 12.5h63v62q0 17 12 29t29.5 12t29.5 -12t12 -29v-62h524l-84 -83
h-440v-547l668 668q12 12 29 12t29.5 -12t12.5 -29t-12 -29z" />
    <glyph glyph-name="ziyoucaiqie" unicode="&#xe89e;"
d="M1016 -120v-3h-335v68h270v270h68v-335h-3zM951 823h-270v68h335v-3h3v-335h-68v270zM8 -120h-3v335h68v-270h270v-68h-335v3zM73 553h-68v335h3v3h335v-68h-270v-270z" />
    <glyph glyph-name="yuantu" unicode="&#xe89f;"
d="M128 -116v1000h768v-1000h-768zM838 767l-618 -831h618v831zM195 -12l615 827h-615v-827z" />
    <glyph glyph-name="tiezhi" unicode="&#xe8a0;"
d="M208 113q135 44 304 44t304 -44q7 63 51 139l109 186q-10 -10 -26 -26.5t-62 -56.5t-87 -68.5t-88.5 -46t-77.5 -3.5q-30 12 -53.5 68.5t-36 123.5t-20.5 140t-10.5 112.5t-2.5 47.5q-3 -27 -6.5 -75.5t-6.5 -86t-8.5 -85.5t-13.5 -84.5t-19.5 -71t-29 -57.5t-39.5 -32
q-83 -36 -271 134q-41 37 -70 67l109 -186q44 -76 51 -139zM512 123q-167 0 -298 -44q8 -24 10 -46q128 41 288 41t288 -41q2 22 10 46q-131 44 -298 44zM454 677.5q0 -23.5 17 -40.5t41 -17t40.5 17t16.5 41q0 13 -8.5 27.5t-20.5 21.5q-13 8 -28 8q-24 0 -41 -17
t-17 -40.5zM933 440.5q0 -17.5 12.5 -30t30.5 -12.5q11 0 21 6q9 5 15 15.5t6 20.5q0 18 -12.5 30.5t-30 12.5t-30 -12.5t-12.5 -30zM6 440q0 -10 6 -20.5t15 -15.5q10 -6 21 -6q18 0 30.5 12.5t12.5 30t-12.5 30t-30 12.5t-30 -12.5t-12.5 -30.5v0v0z" />
    <glyph glyph-name="wenzi" unicode="&#xe8a1;"
d="M849 -122h-674q-70 0 -119.5 49.5t-49.5 119.5v674q0 70 49.5 119.5t119.5 49.5h674q70 0 119.5 -49.5t49.5 -119.5v-674q0 -70 -49.5 -119.5t-119.5 -49.5zM934 721q0 35 -25 60t-60 25h-674q-35 0 -60 -25t-25 -60v-674q0 -35 25 -60t60 -25h674q35 0 60 25t25 60v674z
M723 511q-19 0 -30.5 11.5t-11.5 30.5h-127v-338q19 0 30.5 -11.5t11.5 -30.5t-11.5 -30.5t-30.5 -11.5h-84q-19 0 -30.5 11.5t-11.5 30.5t11.5 30.5t30.5 11.5v338h-127q0 -19 -11.5 -30.5t-30.5 -11.5t-30.5 11.5t-11.5 30.5v42q0 19 11.5 30.5t30.5 11.5h422
q19 0 30.5 -11.5t11.5 -30.5v-42q0 -19 -11.5 -30.5t-30.5 -11.5z" />
    <glyph glyph-name="bianji" unicode="&#xe8a8;"
d="M233 -124h-204v253l543 584l226 -234l-466 -497h663v-106h-762zM854 538l-226 233l113 117l10 2.5t25.5 1.5t38.5 -4.5t45.5 -19.5t50.5 -39q24 -25 38.5 -52t18.5 -48t4 -38.5t-2 -26.5l-3 -10z" />
    <glyph glyph-name="bai" unicode="&#xe8a2;"
d="M472 718q35 59 63 129q5 15 9 21l-83 16q-20 -84 -68 -166h-136q-80 0 -128 6q6 -45 6 -138v-567q0 -85 -7 -135h82v64h604v-64h82q-7 39 -7 132v570q0 89 6 138q-50 -6 -131 -6h-292zM210 650h604v-268h-604v268zM210 314h604v-297h-604v297z" />
    <glyph glyph-name="fangda" unicode="&#xe8a3;"
d="M957 328q-25 0 -40.5 -15t-15.5 -40v-201l-189 190q-16 16 -38.5 16t-39 -16.5t-16.5 -39t16 -38.5l190 -189h-201q-25 0 -40 -15.5t-15 -40.5t15 -40.5t40 -15.5h334q25 0 40.5 15.5t15.5 40.5v334q0 25 -15.5 40t-40.5 15zM401 885h-334q-25 0 -40.5 -15.5t-15.5 -40.5
v-334q0 -25 15.5 -40t40.5 -15t40.5 15t15.5 40v201l189 -190q16 -16 38.5 -16t39 16.5t16.5 39t-16 38.5l-190 189h201q25 0 40 15.5t15 40.5t-15 40.5t-40 15.5z" />
    <glyph glyph-name="guanbi2" unicode="&#xe8a4;"
d="M596 384l407 -407q17 -17 17 -41.5t-17.5 -42t-42 -17.5t-41.5 17l-407 407l-407 -407q-17 -17 -41.5 -17t-42 17.5t-17.5 42t17 41.5l407 407l-407 407q-17 17 -17 41.5t17.5 42t42 17.5t41.5 -17l407 -407l407 407q17 17 41.5 17t42 -17.5t17.5 -42t-17 -41.5z" />
    <glyph glyph-name="hei" unicode="&#xe8a5;"
d="M241 747q65 -76 115 -174l61 38q-56 92 -122 166zM727 780q-28 -50 -53 -84.5t-71 -86.5l52 -39q85 101 130 172zM539 207v105h308q63 0 99 -6v73q-36 -5 -101 -5h-306v102h236q81 0 132 -5q-5 47 -5 125v164q0 76 5 124q-36 -6 -131 -6h-528q-85 0 -128 6q5 -48 5 -127
v-161q0 -80 -5 -125q52 5 135 5h217v-102h-291q-67 0 -99 5v-73q34 6 99 6h291v-105h-355q-63 0 -109 7v-76q51 7 109 7h788q58 0 111 -7v76q-47 -7 -111 -7h-366zM539 536v282h294v-282h-294zM472 818v-282h-278v282h278zM166 122q-28 -59 -59.5 -98t-89.5 -89l56 -51
q55 53 87 96t68 110zM337 93q23 -89 26 -199l70 9q-8 113 -32 201zM571 90q38 -80 66 -195l68 19q-25 96 -73 193zM790 85q49 -54 80.5 -96.5t67.5 -103.5l61 44q-44 64 -72.5 100t-81.5 92z" />
    <glyph glyph-name="jindu" unicode="&#xe8a6;"
d="M109 722q0 28 19.5 47.5t47.5 19.5h202l-9 97h-214q-59 0 -100.5 -42t-41.5 -102v-215l96 -8v203zM490 572h-76l152 -209l-152 -208h76l152 208zM263 155l151 208l-151 209h-76l152 -209l-152 -208h76zM109 46v203l-96 -8v-215q0 -60 41.5 -102t100.5 -42h214l9 97h-202
q-28 0 -47.5 19.5t-19.5 47.5zM869 886h-214l-9 -97h202q28 0 47.5 -19.5t19.5 -47.5v-203l96 8v215q0 60 -41.5 102t-100.5 42zM915 46q0 -28 -19.5 -47.5t-47.5 -19.5h-202l9 -97h214q59 0 100.5 42t41.5 102v215l-96 8v-203zM869 363l-152 209h-75l151 -209l-151 -208h75
z" />
    <glyph glyph-name="bofang-yugaopian" unicode="&#xe8a7;"
d="M78 -127l1 1022l867 -511z" />
  <glyph glyph-name="yiban" unicode="&#xe8a9;"
         d="M1003 540q-59 87 -297 87q-14 57 -32.5 102t-36 71.5t-36 45.5t-34 27t-27.5 12t-19 3h-7q-34 -5 -66.5 -34t-54 -65.5t-38.5 -74.5t-25 -61.5t-8 -25.5q-73 5 -130.5 -1t-87 -16t-49.5 -24t-24 -19.5t-5 -9.5v0q-14 -19 -17 -42.5t3.5 -45.5t20 -47t30 -45.5t36.5 -42
t36 -36t33 -28.5t23 -18.5t9 -7.5v0q-80 -239 -12 -324q14 -19 30 -24q44 -19 82.5 -15.5t76 22.5t64.5 41t47.5 39.5t25.5 17.5q9 -9 44.5 -31t87 -47.5t99.5 -34.5t83 8q18 11 28.5 37t13.5 59t2 70t-5.5 72.5t-9 63.5t-8 46l-3.5 18q2 2 7 6t20 16.5t29 26t32 33t32 37.5
t26.5 40t18.5 41.5t4.5 40t-12.5 37.5zM774 279q-18 0 0 -52q9 -27 17 -62t15 -82.5t-0.5 -84.5t-31.5 -49q-3 0 -8.5 0.5t-26 7t-44.5 18t-64 36.5t-84 59q-1 1 -2.5 2t-6.5 3t-10.5 3t-14.5 -1t-18 -7q-4 -2 -20 -12l-36 -22.5t-45.5 -27.5t-50 -26.5t-47 -19.5
t-39.5 -7.5t-24 11.5q-10 15 -11.5 44.5t3.5 60.5t13.5 68t15.5 61t14 44q2 4 4 10.5t-2 20.5t-20 21q-34 18 -104 87.5t-70 104.5l5 14q37 59 225 58q31 -1 66 -3q2 6 5.5 15.5t13.5 36.5t20 51.5t24 54.5t26.5 52t26 36.5t24.5 14.5q9 0 15.5 -1t13.5 -6t12 -10t12 -17.5
t12.5 -24.5t16 -34t19.5 -43.5t25 -56t31 -68.5q6 1 15 1.5t37 0.5t53 -1.5t56.5 -6t55 -12t41.5 -21t21 -30.5l2 -7q-3 -44 -176 -202z"/>
  <glyph glyph-name="fuwu" unicode="&#xe8aa;"
         d="M903 824h-733q-20 0 -34.5 -14.5t-14.5 -34.5v-782q0 -20 14.5 -34.5t34.5 -14.5h733v880zM170 873h782v-953q0 -10 -7 -17.5t-17 -7.5h-758q-41 0 -69.5 28.5t-28.5 69.5v782q0 40 28.5 69t69.5 29zM536 -105h391h-24v196h-733q-27 0 -49 -13v-127v42q0 20 14.5 34.5
t34.5 14.5h733v-147h-367zM512 824v-323l-85 51q-13 8 -25 0l-86 -51v323h196zM524 437q12 -7 24.5 0t12.5 21v366h-293v-366q0 -14 12 -21t25 0l109 66zM927 -117h-757q-46 0 -78 32.5t-32 77.5v782q0 46 32 78t78 32h794v-965q0 -15 -10.5 -26t-26.5 -11zM927 -92
q5 0 9 3.5t4 8.5v940h-770q-36 0 -61 -25t-25 -60v-782q0 -35 25 -60t61 -25h721v24h-721q-26 0 -44 19h-17v824q0 25 18 43t43 18h745v-928h12v0zM133 -7q0 -15 11 -26t26 -11h721v74h-721q-15 0 -26 -11t-11 -26zM133 70v-28q17 12 37 12h721v24h-721q-20 0 -37 -8z
M170 812q-15 0 -26 -11t-11 -26v-678q18 6 37 6h721v709h-318v-354q0 -21 -18.5 -32t-36.5 0l-104 62l-103 -62q-18 -11 -37 -0.5t-19 32.5v354h-85zM280 812v-354q0 -7 6 -10.5t12 0.5l116 69l116 -69q6 -4 12.5 -0.5t6.5 10.5v354h-25v-333l-103 63q-7 3 -13 0l-104 -63
v333h-24zM329 812v-289l66 40q19 11 38 0l67 -40v289h-171z"/>
  <glyph glyph-name="diqiu" unicode="&#xe8ab;"
         d="M951 569q-37 86 -102.5 151.5t-151.5 102.5q-88 37 -185 37t-186 -37q-85 -37 -151 -102.5t-102 -151.5q-37 -88 -37 -185t37 -185q36 -86 102 -152q66 -65 152 -102q88 -37 185 -37t185 37q86 37 152 102.5t102 151.5q37 88 37 185t-37 185zM66 384q0 91 36 173
q33 80 95 142v0q80 13 133 10.5t64 -20.5q9 -16 -4 -51q-18 -46 -60.5 -95t-72.5 -58q-74 -22 -97 -112q-3 -13 11 -34t53 -69q44 -53 59 -77q23 -34 17 -42q-11 -17 -32 -18q-43 -2 -90 56q-22 28 -80 31q-32 79 -32 164zM685 -26q-82 -35 -173 -35t-174 35q-80 34 -141 96
q-57 56 -90 129q40 -4 55 -23q52 -64 103 -64h3q32 1 49 27q12 18 -7 49.5t-70 94.5q-31 37 -43 55q-17 24 -17 30q20 79 83 98q35 10 81 63q46 52 65 102q17 45 2 69q-19 30 -99 30v0q-38 0 -88 -6q52 44 114 70q83 35 174 35q90 0 173 -35q80 -34 142 -96q47 -46 77 -103
q-67 34 -115 48q-24 7 -60 25q-22 10 -33 14t-28.5 6t-32.5 -6t-30 -25q-19 -22 -48 -49q-16 -14 -23 -21.5t-15.5 -21t-13.5 -31.5q0 -1 -1 -3.5t-1 -3.5q-9 -29 -13.5 -46.5t-8 -45t3.5 -48t23 -34.5q8 -6 21 -17q39 -33 57 -44q35 -20 56 -8q16 11 48 52q28 36 42 47
q3 2 5 2q8 -2 19 -24q8 -14 22 -51q11 -27 15 -36q13 -34 6.5 -63t-38.5 -87q-17 -32 9 -103q-40 -28 -85 -47zM922 211q-34 -80 -95 -141q-19 -19 -40 -36q-20 58 -8 80q17 31 26.5 52t14.5 41.5t2.5 38t-10.5 36.5q-5 10 -15 35q-11 28 -17 41.5t-16.5 28.5t-21.5 17
q-12 4 -23 -5q-16 -13 -45 -51q-30 -38 -43 -46q-3 -2 -7 -2.5t-9.5 1.5t-10.5 4.5t-12 7t-12 8.5t-13 10.5t-12.5 10t-12.5 10.5q-3 3 -10 8.5t-11 8.5q-13 10 -17.5 27.5t-1 42t7.5 40.5t12 42q1 4 2 7q7 21 16 33.5t30 31.5q30 28 50 50q16 18 32 22.5t28.5 0.5t38.5 -17
q38 -18 63 -25q59 -17 137 -60q1 -3 3 -7q35 -82 35 -173q0 -90 -35 -173zM512 -115q-101 0 -194 39q-90 38 -159 107t-107 159q-39 93 -39 194.5t39 193.5q38 90 107 159t159 107q93 39 194 39t194 -39q90 -38 159 -107t107 -159q39 -92 39 -194t-39 -194
q-38 -90 -107 -159t-159 -107q-92 -39 -194 -39zM175 129q18 -23 38 -43q59 -59 135 -91q78 -33 164 -33t164 33q35 15 66 35q-21 68 -1 105q30 54 36 79.5t-5 49.5q-5 12 -14 34l-1 3q-15 36 -21 50q-1 0 -1.5 1l-0.5 1q-9 -10 -25 -31q-35 -45 -55 -57q-32 -21 -79 7
q-20 12 -60 45l-6 6q-3 2 -8 6t-7 6q-21 17 -30 41.5t-5.5 56t8 51t14.5 49.5q0 1 0.5 3l0.5 2l1 3q9 28 21.5 45t36.5 39q28 26 46 47q20 22 40 32t41.5 7t34.5 -7.5t35 -15.5q35 -16 57 -23q20 -5 45 -16q-14 18 -29 33q-59 59 -135 91q-78 33 -164 33t-164 -33
q-21 -9 -40 -19q97 0 123 -42q21 -34 -1 -90q-20 -53 -68 -108q-51 -58 -93 -71q-47 -13 -65 -74q3 -6 11 -17q12 -17 43 -54q20 -25 29.5 -37t24 -31.5t20 -31t10.5 -25.5t3 -25t-9 -21q-24 -35 -66 -38h-5q-45 0 -90 40zM736 428q6 0 12 -1q16 -4 30 -21t21 -32.5
t19 -47.5l1 -1q9 -22 14 -33q13 -30 12.5 -58.5t-11 -57.5t-34.5 -73q-4 -7 0 -28l11 11q58 58 90 134q33 79 33 164t-33 163q-72 39 -125 54q-26 8 -67 27q-24 12 -34 15t-18.5 0t-19.5 -15q-20 -23 -51 -52q-20 -18 -27.5 -27.5t-12.5 -26.5v-2q-1 -2 -2 -6
q-33 -108 -8 -127q4 -4 16 -14l5 -4q50 -42 65 -46q9 7 33 39q31 40 49 54q15 12 32 12zM114 242q56 -6 82 -38q39 -49 71 -48q6 0 9 3q-3 8 -12 21q-14 22 -57 75q-31 37 -43 54t-20.5 36t-5.5 34q27 103 112 128q24 7 63 52t56 87q9 24 5 31q-4 5 -21 8t-55.5 1.5
t-88.5 -8.5q-55 -57 -86 -130q-33 -78 -33 -164q-1 -73 24 -142zM747 365v0v0zM203 372z"/>
  <glyph glyph-name="huangguan" unicode="&#xe8ac;"
         d="M700 838q9 -4 13 -13.5t0 -18.5t-13.5 -13t-18.5 -1q-81 34 -169 34q-90 0 -172 -35t-141 -94t-94 -141t-35 -172t35 -172t94 -141t141 -94t172 -35t172 35t141 94t94 141t35 172q0 88 -34 169q-3 9 1 18.5t13 13.5t18.5 0t13.5 -13q37 -90 37 -188q0 -100 -39 -191
t-104.5 -156.5t-156.5 -104.5t-191 -39t-191 39t-156.5 104.5t-104.5 156.5t-39 191q0 203 144 347t347 144q98 0 188 -37zM512 -117q-207 0 -354 147t-147 354t147 354t354 147q100 0 192 -38v0q13 -6 18 -19t0 -26t-18 -18.5t-26 -0.5q-80 33 -165 33h-1q-88 0 -168 -34.5
t-137.5 -92t-92 -137.5t-34.5 -168q0 -117 58 -216.5t157.5 -157.5t216.5 -58t216.5 58t157.5 157.5t58 216.5q0 86 -33 165q-5 13 0.5 26.5t18.5 18.5t26 0t19 -18q38 -92 38 -192q0 -102 -39.5 -194.5t-107 -160t-160 -107t-194.5 -39.5zM512 865q-130 0 -241 -64.5
t-175.5 -175.5t-64.5 -241t64.5 -241t175.5 -175.5t241 -64.5t241 64.5t175.5 175.5t64.5 241q0 96 -37 184q-5 13 -18 7.5t-8 -18.5q34 -83 34 -173q0 -92 -36 -175.5t-96.5 -144t-144 -96.5t-175.5 -36t-175.5 36t-144 96.5t-96.5 144t-36 175.5t36 175.5t96.5 144
t144 96.5t175.5 36q90 0 173 -34q13 -6 19 8q5 13 -8 18q-88 37 -184 37zM508 574l4 -4q8 8 18.5 7t15.5 -10l82 -123l138 40q12 3 21 -5t7 -20l-67 -361q-2 -7 -8 -12t-14 -5h-386q-8 0 -14 5t-8 12l-67 361q-2 12 7 20t21 5l141 -40l79 123q5 8 14 10q9 1 16 -3zM324 192
l13 -68h350l57 309l-119 -35q-16 -4 -24 9l-89 133l-86 -133q-8 -13 -24 -9l-123 35l37 -197h299q9 0 15.5 -6.5t6.5 -15.5t-6.5 -15.5t-15.5 -6.5h-291v0zM508.5 515q-35.5 0 -61 25.5t-25.5 61t25.5 60.5t61 25t61 -25t25.5 -60.5t-25.5 -61t-61 -25.5zM512 567
q20 0 29.5 17t0 34t-29.5 17q-14 0 -24 -10t-10 -24t10 -24t24 -10zM705 70h-386q-12 0 -20.5 7.5t-11.5 18.5l-67 361q-3 18 10 29.5t30 7.5l134 -38l49 75q-31 28 -31 70q0 40 28.5 68t68 28t68 -28t28.5 -68q0 -38 -26 -65l53 -80l132 38q16 5 29.5 -7t10.5 -30l-68 -361
q-2 -11 -10.5 -18t-20.5 -8zM252 475q-5 0 -8 -3q-5 -4 -4 -11l67 -361q2 -10 12 -10h387q9 0 11 10l67 361q1 6 -3.5 10.5t-11.5 2.5l-145 -42l-60 90q-10 -6 -21 -11l66 -99q5 -7 13 -4l136 39l-62 -333h-368l-16 88h303q5 0 8.5 3.5t3.5 8.5t-3.5 8.5t-8.5 3.5h-308
l-40 221l138 -39q8 -3 13 5l62 96q-11 4 -21 10l-56 -86l-148 41q-2 1 -3 1zM345 134h334l53 285l-104 -30q-23 -7 -36 13l-69 104q-11 -2 -21 -1l-67 -103q-13 -20 -35 -14l-108 31l32 -173h291q14 0 23 -9.5t9 -22.5t-9 -22.5t-23 -9.5h-279zM470 536q10 -7 22 -9l19 30v0
q-12 0 -23 7q-1 -1 -1 -2zM513 556l19 -27q11 3 21 10l-15 23l-2 2q-10 -6 -22 -7zM508.5 677q-31.5 0 -54 -22t-22.5 -54q0 -31 22 -53l16 25q1 2 4 5q-6 11 -6 23q0 18 13 31t31 13q25 0 38 -22t0 -44v0v-1q3 -2 5 -5l13 -20q17 21 17 48q0 32 -22.5 54t-54 22zM497 587
q8 0 16 -4q8 5 18 4v0l2 2q7 12 0 24t-21 12q-10 0 -17 -7t-7 -17q0 -8 5 -14h4z"/>
  <glyph glyph-name="huodong" unicode="&#xe8ad;"
         d="M860 558h-156q59 28 105 67t63 83q31 79 -44 143v1q-46 32 -95 32q-37 0 -71 -16t-60.5 -42.5t-42.5 -47.5t-29 -43q-8 -13 -16 -29q-8 15 -16 29q-14 22 -30 43t-42.5 47.5t-61 42.5t-70.5 16q-50 0 -97 -34l-1 -1q-72 -62 -41 -141q17 -44 63 -83t105 -67h-160
q-43 0 -74 -30.5t-32 -72.5v-468q1 -43 32 -73t74 -30h697q44 0 75 30t31 73v468q0 42 -31 72.5t-75 30.5zM798 735q-18 -46 -101 -92.5t-141 -50.5q11 63 61 132q59 82 115 82q24 0 46 -16q30 -26 20 -55zM551 260v219h309q11 0 19 -7t8 -17v-195h-336zM887 -13
q0 -10 -8 -17.5t-19 -7.5h-309v220h336v-195v0zM137 455q0 10 8 17t18 7h308v-219h-334v195zM471 182v-220h-308q-10 0 -18 7.5t-8 17.5v195h334zM246 788q24 18 48 18q57 0 116 -82q24 -34 40 -70.5t21 -61.5q-58 4 -141 50.5t-101 92.5q-11 29 17 53z"/>
  </font>
</defs>
</svg>
